<?xml version="1.0" encoding="UTF-8"?>
<svg version="1.1" xmlns="http://www.w3.org/2000/svg" width="120" height="120">
<path d="M0 0 C39.6 0 79.2 0 120 0 C120 39.6 120 79.2 120 120 C80.4 120 40.8 120 0 120 C0 80.4 0 40.8 0 0 Z " fill="#E5B687" transform="translate(0,0)"/>
<path d="M0 0 C34.98 0 69.96 0 106 0 C102.43568546 2.3762097 98.82722113 3.31190818 94.75 4.4375 C89.28652019 5.9487767 84.20786771 7.72556729 79 10 C76.16552248 11.03972252 73.30504034 11.993325 70.4375 12.9375 C69.64811035 13.19909912 68.8587207 13.46069824 68.04541016 13.73022461 C62.24836586 15.63309357 56.415141 17.35839074 50.53515625 18.98828125 C45.73623681 20.36167366 40.98511639 21.87833041 36.23974609 23.42602539 C33.367214 24.34579989 31.0379534 25 28 25 C31.29531923 30.73000526 34.58609556 36.06681268 39 41 C39.99 40.67 40.98 40.34 42 40 C42.268125 39.29875 42.53625 38.5975 42.8125 37.875 C44.18960128 34.54096533 46.02204307 32.44379184 48.41015625 29.78125 C49.92295838 28.0863169 51.3368023 26.34052916 52.75 24.5625 C53.4925 23.716875 54.235 22.87125 55 22 C55.66 22 56.32 22 57 22 C56.88410522 23.65660645 56.88410522 23.65660645 56.76586914 25.34667969 C55.79696401 40.66550843 56.09304105 55.9132353 56.4375 71.25 C56.49087462 73.8567578 56.54361317 76.46352871 56.59570312 79.0703125 C56.72315307 85.38037786 56.85838956 91.69023735 57 98 C56.01 98 55.02 98 54 98 C54.04882324 96.83150513 54.04882324 96.83150513 54.09863281 95.6394043 C54.65363484 78.03105739 53.50238433 65.373214 42.42626953 51.28393555 C40.94823179 49.66547546 40.94823179 49.66547546 38 50 C36.35548177 51.96990419 34.88950045 53.89661273 33.4375 56 C32.00577308 58.05391519 30.54718919 60.0271136 29 62 C28.34 62 27.68 62 27 62 C27 72.56 27 83.12 27 94 C25.515 93.505 25.515 93.505 24 93 C23.505 81.12 23.505 81.12 23 69 C22.34 68.67 21.68 68.34 21 68 C21.99 67.01 21.99 67.01 23 66 C24.87215427 57.07268309 24.34768991 47.36469973 24.60546875 38.28515625 C24.64285156 37.11855469 24.68023438 35.95195313 24.71875 34.75 C24.74904297 33.69296875 24.77933594 32.6359375 24.81054688 31.546875 C25 29 25 29 26 27 C25.03578125 27.28875 24.0715625 27.5775 23.078125 27.875 C21.81484375 28.24625 20.5515625 28.6175 19.25 29 C17.99703125 29.37125 16.7440625 29.7425 15.453125 30.125 C12 31 12 31 8 31 C6.65224236 26.96299988 5.32437873 22.91972422 4 18.875 C3.6184375 17.73289062 3.236875 16.59078125 2.84375 15.4140625 C2.4828125 14.30546875 2.121875 13.196875 1.75 12.0546875 C1.24726562 10.53077393 1.24726562 10.53077393 0.734375 8.97607422 C0 6 0 6 0 0 Z " fill="#B5895D" transform="translate(0,0)"/>
<path d="M0 0 C0.66 0 1.32 0 2 0 C1.88410522 1.65660645 1.88410522 1.65660645 1.76586914 3.34667969 C0.79696401 18.66550843 1.09304105 33.9132353 1.4375 49.25 C1.49087462 51.8567578 1.54361317 54.46352871 1.59570312 57.0703125 C1.72315307 63.38037786 1.85838956 69.69023735 2 76 C1.01 76 0.02 76 -1 76 C-0.95117676 74.83150513 -0.95117676 74.83150513 -0.90136719 73.6394043 C-0.34636516 56.03105739 -1.49761567 43.373214 -12.57373047 29.28393555 C-14.05176821 27.66547546 -14.05176821 27.66547546 -17 28 C-18.64451823 29.96990419 -20.11049955 31.89661273 -21.5625 34 C-22.99422692 36.05391519 -24.45281081 38.0271136 -26 40 C-26.66 40 -27.32 40 -28 40 C-28 50.56 -28 61.12 -28 72 C-28.99 71.67 -29.98 71.34 -31 71 C-31.33 63.08 -31.66 55.16 -32 47 C-32.66 46.67 -33.32 46.34 -34 46 C-33.34 45.34 -32.68 44.68 -32 44 C-30.12784573 35.07268309 -30.65231009 25.36469973 -30.39453125 16.28515625 C-30.33845703 14.53525391 -30.33845703 14.53525391 -30.28125 12.75 C-30.25095703 11.69296875 -30.22066406 10.6359375 -30.18945312 9.546875 C-30 7 -30 7 -29 5 C-30.32 4.67 -31.64 4.34 -33 4 C-31.02 3.67 -29.04 3.34 -27 3 C-26.62488281 3.65226562 -26.24976563 4.30453125 -25.86328125 4.9765625 C-22.90134541 10.0349819 -19.90963511 14.63040781 -16 19 C-15.01 18.67 -14.02 18.34 -13 18 C-12.731875 17.29875 -12.46375 16.5975 -12.1875 15.875 C-10.81039872 12.54096533 -8.97795693 10.44379184 -6.58984375 7.78125 C-5.07704162 6.0863169 -3.6631977 4.34052916 -2.25 2.5625 C-1.5075 1.716875 -0.765 0.87125 0 0 Z " fill="#020101" transform="translate(55,22)"/>
<path d="M0 0 C3.58635489 1.19545163 3.71853734 1.82183647 5.375 5.0625 C7.72170584 9.51339498 10.28762752 13.76408213 13 18 C13.556875 17.29875 14.11375 16.5975 14.6875 15.875 C15.450625 14.92625 16.21375 13.9775 17 13 C17.43183594 12.44957031 17.86367187 11.89914063 18.30859375 11.33203125 C19.49416974 9.85094077 20.74370424 8.42159783 22 7 C22.66 7 23.32 7 24 7 C24.66 5.68 25.32 4.36 26 3 C26.99 3 27.98 3 29 3 C29.02572329 10.05769049 29.04302027 17.11536854 29.05493164 24.1730957 C29.05990648 26.5653529 29.06668874 28.95760715 29.07543945 31.34985352 C29.12620693 45.60357058 28.96245113 59.77590548 28 74 C26.515 73.505 26.515 73.505 25 73 C25.33 65.08 25.66 57.16 26 49 C25.34 49 24.68 49 24 49 C24 45.7 24 42.4 24 39 C23.01 39.495 23.01 39.495 22 40 C19.36 35.38 16.72 30.76 14 26 C13.34 26 12.68 26 12 26 C5.10486556 33.17247537 2.06778178 39.67430095 2.22640991 49.62057495 C2.30721902 51.85387555 2.43172831 54.08161745 2.5625 56.3125 C2.65581575 58.5678326 2.7356227 60.82297499 2.8056488 63.07914734 C2.87464592 65.11271542 2.97830311 67.14502274 3.08422852 69.17700195 C2.98956436 73.47365713 2.18034439 76.8823799 1 81 C0.67 81 0.34 81 0 81 C0 54.27 0 27.54 0 0 Z " fill="#020101" transform="translate(68,18)"/>
<path d="M0 0 C0.33 0 0.66 0 1 0 C1 10.23 1 20.46 1 31 C-2.07902544 27.92097456 -4.73711753 24.99555643 -7.375 21.5625 C-8.46941406 20.17224609 -8.46941406 20.17224609 -9.5859375 18.75390625 C-11 16 -11 16 -10.48046875 13.4453125 C-8.85754641 10.76470726 -7.07790023 8.60051404 -4.9375 6.3125 C-2.13706887 3.38568199 -2.13706887 3.38568199 0 0 Z " fill="#E6B788" transform="translate(53,31)"/>
<path d="M0 0 C0.33 0 0.66 0 1 0 C1 8.91 1 17.82 1 27 C-2.44312589 23.55687411 -4.79263746 21.11379744 -7.3125 17.1875 C-7.82425781 16.39730469 -8.33601563 15.60710938 -8.86328125 14.79296875 C-9.23839844 14.20128906 -9.61351563 13.60960937 -10 13 C-2.74004684 3.24746292 -2.74004684 3.24746292 0 0 Z " fill="#E6B788" transform="translate(93,27)"/>
<path d="M0 0 C4.45450773 2.22725387 5.49427817 3.82379695 8 8 C8.433125 8.70125 8.86625 9.4025 9.3125 10.125 C10.21966721 12.59909238 9.89031902 13.51763269 9 16 C7.1875 18.578125 7.1875 18.578125 5 21.25 C4.278125 22.14203125 3.55625 23.0340625 2.8125 23.953125 C2.214375 24.62859375 1.61625 25.3040625 1 26 C0.67 26 0.34 26 0 26 C0 17.42 0 8.84 0 0 Z " fill="#E6B788" transform="translate(27,31)"/>
<path d="M0 0 C4.86322188 6.07902736 4.86322188 6.07902736 6.8125 9 C7.25207031 9.639375 7.69164063 10.27875 8.14453125 10.9375 C9.31819128 13.7671461 8.99101003 15.11428357 8 18 C6.1875 20.67578125 6.1875 20.67578125 4 23.3125 C3.278125 24.19550781 2.55625 25.07851563 1.8125 25.98828125 C0.9153125 26.98408203 0.9153125 26.98408203 0 28 C-0.33 28 -0.66 28 -1 28 C-0.67 18.76 -0.34 9.52 0 0 Z " fill="#E6B788" transform="translate(70,24)"/>
</svg>
