<?xml version="1.0" encoding="UTF-8"?>
<svg version="1.1" xmlns="http://www.w3.org/2000/svg" width="1500" height="1500">
<path d="M0 0 C4.95 0 9.9 0 15 0 C15 1.98 15 3.96 15 6 C16.98 6 18.96 6 21 6 C21 44.61 21 83.22 21 123 C21.99 123 22.98 123 24 123 C24 178.44 24 233.88 24 291 C24.99 291 25.98 291 27 291 C27 321.69 27 352.38 27 384 C27.99 384 28.98 384 30 384 C30 406.77 30 429.54 30 453 C30.99 453 31.98 453 33 453 C33 469.83 33 486.66 33 504 C33.99 504 34.98 504 36 504 C36 517.86 36 531.72 36 546 C36.99 546 37.98 546 39 546 C39 575.7 39 605.4 39 636 C39.99 636 40.98 636 42 636 C42 638.97 42 641.94 42 645 C42.99 645 43.98 645 45 645 C45 644.01 45 643.02 45 642 C45.99 642 46.98 642 48 642 C48 639.03 48 636.06 48 633 C48.99 633 49.98 633 51 633 C51 632.01 51 631.02 51 630 C52.98 630 54.96 630 57 630 C57 629.01 57 628.02 57 627 C58.98 627 60.96 627 63 627 C63 632.94 63 638.88 63 645 C63.99 645 64.98 645 66 645 C66 644.01 66 643.02 66 642 C67.98 642 69.96 642 72 642 C72 641.01 72 640.02 72 639 C73.98 639 75.96 639 78 639 C78 638.01 78 637.02 78 636 C78.99 636 79.98 636 81 636 C81 635.01 81 634.02 81 633 C81.99 633 82.98 633 84 633 C84 632.01 84 631.02 84 630 C84.99 630 85.98 630 87 630 C87 629.01 87 628.02 87 627 C87.99 627 88.98 627 90 627 C90 626.01 90 625.02 90 624 C93.96 624 97.92 624 102 624 C102 623.01 102 622.02 102 621 C104.97 621 107.94 621 111 621 C111 623.97 111 626.94 111 630 C110.01 630 109.02 630 108 630 C108 630.99 108 631.98 108 633 C107.01 633 106.02 633 105 633 C105 633.99 105 634.98 105 636 C104.01 636 103.02 636 102 636 C102 636.99 102 637.98 102 639 C101.01 639 100.02 639 99 639 C99 640.98 99 642.96 99 645 C98.01 645 97.02 645 96 645 C96 645.99 96 646.98 96 648 C95.01 648 94.02 648 93 648 C93 648.99 93 649.98 93 651 C92.01 651 91.02 651 90 651 C90 652.98 90 654.96 90 657 C89.01 657 88.02 657 87 657 C87 657.99 87 658.98 87 660 C86.01 660 85.02 660 84 660 C84 660.99 84 661.98 84 663 C83.01 663 82.02 663 81 663 C81 664.98 81 666.96 81 669 C80.01 669 79.02 669 78 669 C78 669.99 78 670.98 78 672 C77.01 672 76.02 672 75 672 C75 673.98 75 675.96 75 678 C74.01 678 73.02 678 72 678 C72 678.99 72 679.98 72 681 C71.01 681 70.02 681 69 681 C69 681.99 69 682.98 69 684 C68.01 684 67.02 684 66 684 C66 684.99 66 685.98 66 687 C65.01 687 64.02 687 63 687 C63 688.98 63 690.96 63 693 C61.02 693 59.04 693 57 693 C57 694.98 57 696.96 57 699 C58.98 699 60.96 699 63 699 C63 698.01 63 697.02 63 696 C64.98 696 66.96 696 69 696 C69 695.01 69 694.02 69 693 C70.98 693 72.96 693 75 693 C75 692.01 75 691.02 75 690 C75.99 690 76.98 690 78 690 C78 689.01 78 688.02 78 687 C79.98 687 81.96 687 84 687 C84 686.01 84 685.02 84 684 C85.98 684 87.96 684 90 684 C90 687.96 90 691.92 90 696 C90.99 696 91.98 696 93 696 C93 701.94 93 707.88 93 714 C92.01 714 91.02 714 90 714 C90 715.98 90 717.96 90 720 C89.01 720 88.02 720 87 720 C87 721.98 87 723.96 87 726 C86.01 726 85.02 726 84 726 C84 727.98 84 729.96 84 732 C83.01 732 82.02 732 81 732 C81 732.99 81 733.98 81 735 C80.01 735 79.02 735 78 735 C78 736.98 78 738.96 78 741 C77.01 741 76.02 741 75 741 C75 742.98 75 744.96 75 747 C74.01 747 73.02 747 72 747 C72 747.99 72 748.98 72 750 C71.01 750 70.02 750 69 750 C69 751.98 69 753.96 69 756 C68.01 756 67.02 756 66 756 C66 756.99 66 757.98 66 759 C68.97 759 71.94 759 75 759 C75 763.95 75 768.9 75 774 C74.01 774 73.02 774 72 774 C72 775.98 72 777.96 72 780 C71.01 780 70.02 780 69 780 C69 780.99 69 781.98 69 783 C68.01 783 67.02 783 66 783 C66 783.99 66 784.98 66 786 C64.02 786 62.04 786 60 786 C60 786.99 60 787.98 60 789 C59.01 789 58.02 789 57 789 C57 789.99 57 790.98 57 792 C57.99 792 58.98 792 60 792 C60 792.99 60 793.98 60 795 C60.99 795 61.98 795 63 795 C63 794.01 63 793.02 63 792 C65.97 792 68.94 792 72 792 C72 792.99 72 793.98 72 795 C73.98 795 75.96 795 78 795 C78 795.99 78 796.98 78 798 C78.99 798 79.98 798 81 798 C81 802.95 81 807.9 81 813 C80.01 813 79.02 813 78 813 C78 814.98 78 816.96 78 819 C77.01 819 76.02 819 75 819 C75 822.96 75 826.92 75 831 C74.01 831 73.02 831 72 831 C72 838.92 72 846.84 72 855 C72.99 855 73.98 855 75 855 C75 870.84 75 886.68 75 903 C75.99 903 76.98 903 78 903 C78 911.91 78 920.82 78 930 C77.01 930 76.02 930 75 930 C75 937.92 75 945.84 75 954 C75.99 954 76.98 954 78 954 C78 959.94 78 965.88 78 972 C77.01 972 76.02 972 75 972 C75 995.76 75 1019.52 75 1044 C75.99 1044 76.98 1044 78 1044 C78 1066.77 78 1089.54 78 1113 C79.98 1113 81.96 1113 84 1113 C84 1112.01 84 1111.02 84 1110 C85.98 1110 87.96 1110 90 1110 C90 1109.01 90 1108.02 90 1107 C90.99 1107 91.98 1107 93 1107 C93 1106.01 93 1105.02 93 1104 C93.99 1104 94.98 1104 96 1104 C96 1103.01 96 1102.02 96 1101 C96.99 1101 97.98 1101 99 1101 C99 1100.01 99 1099.02 99 1098 C99.99 1098 100.98 1098 102 1098 C102 1096.02 102 1094.04 102 1092 C102.99 1092 103.98 1092 105 1092 C105 1089.03 105 1086.06 105 1083 C107.97 1083 110.94 1083 114 1083 C114 1087.95 114 1092.9 114 1098 C113.01 1098 112.02 1098 111 1098 C111 1100.97 111 1103.94 111 1107 C110.01 1107 109.02 1107 108 1107 C108 1109.97 108 1112.94 108 1116 C107.01 1116 106.02 1116 105 1116 C105 1117.98 105 1119.96 105 1122 C104.01 1122 103.02 1122 102 1122 C102 1123.98 102 1125.96 102 1128 C101.01 1128 100.02 1128 99 1128 C99 1128.99 99 1129.98 99 1131 C98.01 1131 97.02 1131 96 1131 C96 1132.98 96 1134.96 96 1137 C95.01 1137 94.02 1137 93 1137 C93 1139.97 93 1142.94 93 1146 C92.01 1146 91.02 1146 90 1146 C90 1146.99 90 1147.98 90 1149 C86.04 1149 82.08 1149 78 1149 C78 1151.97 78 1154.94 78 1158 C77.01 1158 76.02 1158 75 1158 C75 1158.99 75 1159.98 75 1161 C72.03 1161 69.06 1161 66 1161 C66 1162.98 66 1164.96 66 1167 C66.99 1167 67.98 1167 69 1167 C69 1178.88 69 1190.76 69 1203 C68.01 1203 67.02 1203 66 1203 C66 1205.97 66 1208.94 66 1212 C65.01 1212 64.02 1212 63 1212 C63 1214.97 63 1217.94 63 1221 C60.03 1221 57.06 1221 54 1221 C54 1221.99 54 1222.98 54 1224 C53.01 1224 52.02 1224 51 1224 C51 1224.99 51 1225.98 51 1227 C50.01 1227 49.02 1227 48 1227 C48 1227.99 48 1228.98 48 1230 C40.08 1230 32.16 1230 24 1230 C24 1229.01 24 1228.02 24 1227 C23.01 1227 22.02 1227 21 1227 C21 1226.01 21 1225.02 21 1224 C18.03 1224 15.06 1224 12 1224 C12 1223.01 12 1222.02 12 1221 C11.01 1221 10.02 1221 9 1221 C9 1220.01 9 1219.02 9 1218 C6.03 1218 3.06 1218 0 1218 C0 1216.02 0 1214.04 0 1212 C-1.98 1212 -3.96 1212 -6 1212 C-6 1211.01 -6 1210.02 -6 1209 C-7.98 1209 -9.96 1209 -12 1209 C-12 1208.01 -12 1207.02 -12 1206 C-13.98 1206 -15.96 1206 -18 1206 C-18 1205.01 -18 1204.02 -18 1203 C-18.99 1203 -19.98 1203 -21 1203 C-21 1200.03 -21 1197.06 -21 1194 C-20.01 1194 -19.02 1194 -18 1194 C-18 1193.01 -18 1192.02 -18 1191 C-13.05 1191 -8.1 1191 -3 1191 C-3 1190.01 -3 1189.02 -3 1188 C0.96 1188 4.92 1188 9 1188 C9 1186.02 9 1184.04 9 1182 C9.99 1182 10.98 1182 12 1182 C12 1178.04 12 1174.08 12 1170 C12.99 1170 13.98 1170 15 1170 C15 1161.09 15 1152.18 15 1143 C14.01 1143 13.02 1143 12 1143 C12 1142.01 12 1141.02 12 1140 C11.01 1140 10.02 1140 9 1140 C9 1138.02 9 1136.04 9 1134 C8.01 1134 7.02 1134 6 1134 C6 1133.01 6 1132.02 6 1131 C5.01 1131 4.02 1131 3 1131 C3 1129.02 3 1127.04 3 1125 C3.99 1125 4.98 1125 6 1125 C6 1124.01 6 1123.02 6 1122 C7.98 1122 9.96 1122 12 1122 C12 1117.05 12 1112.1 12 1107 C11.01 1107 10.02 1107 9 1107 C9 1105.02 9 1103.04 9 1101 C9.99 1101 10.98 1101 12 1101 C12 1100.01 12 1099.02 12 1098 C13.98 1098 15.96 1098 18 1098 C18 1097.01 18 1096.02 18 1095 C17.01 1095 16.02 1095 15 1095 C15 1074.21 15 1053.42 15 1032 C14.01 1032 13.02 1032 12 1032 C12 1008.24 12 984.48 12 960 C11.01 960 10.02 960 9 960 C9 933.27 9 906.54 9 879 C8.01 879 7.02 879 6 879 C6 860.19 6 841.38 6 822 C5.01 822 4.02 822 3 822 C3 820.02 3 818.04 3 816 C0.03 816 -2.94 816 -6 816 C-6 815.01 -6 814.02 -6 813 C-6.99 813 -7.98 813 -9 813 C-9 809.04 -9 805.08 -9 801 C-9.99 801 -10.98 801 -12 801 C-12 801.99 -12 802.98 -12 804 C-13.98 804 -15.96 804 -18 804 C-18 804.99 -18 805.98 -18 807 C-18.99 807 -19.98 807 -21 807 C-21 807.99 -21 808.98 -21 810 C-21.99 810 -22.98 810 -24 810 C-24 810.99 -24 811.98 -24 813 C-24.99 813 -25.98 813 -27 813 C-27 814.98 -27 816.96 -27 819 C-28.98 819 -30.96 819 -33 819 C-33 818.01 -33 817.02 -33 816 C-35.97 816 -38.94 816 -42 816 C-42 812.04 -42 808.08 -42 804 C-41.01 804 -40.02 804 -39 804 C-39 802.02 -39 800.04 -39 798 C-38.01 798 -37.02 798 -36 798 C-36 797.01 -36 796.02 -36 795 C-35.01 795 -34.02 795 -33 795 C-33 793.02 -33 791.04 -33 789 C-32.01 789 -31.02 789 -30 789 C-30 788.01 -30 787.02 -30 786 C-29.01 786 -28.02 786 -27 786 C-27 784.02 -27 782.04 -27 780 C-26.01 780 -25.02 780 -24 780 C-24 779.01 -24 778.02 -24 777 C-23.01 777 -22.02 777 -21 777 C-21 776.01 -21 775.02 -21 774 C-20.01 774 -19.02 774 -18 774 C-18 772.02 -18 770.04 -18 768 C-17.01 768 -16.02 768 -15 768 C-15 767.01 -15 766.02 -15 765 C-14.01 765 -13.02 765 -12 765 C-12 764.01 -12 763.02 -12 762 C-12.99 762 -13.98 762 -15 762 C-15 761.01 -15 760.02 -15 759 C-15.99 759 -16.98 759 -18 759 C-18 755.04 -18 751.08 -18 747 C-14.04 747 -10.08 747 -6 747 C-6 743.04 -6 739.08 -6 735 C-6.99 735 -7.98 735 -9 735 C-9 733.02 -9 731.04 -9 729 C-9.99 729 -10.98 729 -12 729 C-12 725.04 -12 721.08 -12 717 C-11.01 717 -10.02 717 -9 717 C-9 716.01 -9 715.02 -9 714 C-8.01 714 -7.02 714 -6 714 C-6 691.23 -6 668.46 -6 645 C-5.01 645 -4.02 645 -3 645 C-3 579.66 -3 514.32 -3 447 C-3.99 447 -4.98 447 -6 447 C-6 428.19 -6 409.38 -6 390 C-6.99 390 -7.98 390 -9 390 C-9 363.27 -9 336.54 -9 309 C-9.99 309 -10.98 309 -12 309 C-12 277.32 -12 245.64 -12 213 C-12.99 213 -13.98 213 -15 213 C-15 174.39 -15 135.78 -15 96 C-14.01 96 -13.02 96 -12 96 C-12 69.27 -12 42.54 -12 15 C-11.01 15 -10.02 15 -9 15 C-9 12.03 -9 9.06 -9 6 C-8.01 6 -7.02 6 -6 6 C-6 5.01 -6 4.02 -6 3 C-4.02 3 -2.04 3 0 3 C0 2.01 0 1.02 0 0 Z M30 1149 C30 1149.99 30 1150.98 30 1152 C30.99 1152 31.98 1152 33 1152 C33 1151.01 33 1150.02 33 1149 C32.01 1149 31.02 1149 30 1149 Z M42 1170 C42 1170.99 42 1171.98 42 1173 C42.99 1173 43.98 1173 45 1173 C45 1172.01 45 1171.02 45 1170 C44.01 1170 43.02 1170 42 1170 Z M60 1182 C60 1182.99 60 1183.98 60 1185 C60.99 1185 61.98 1185 63 1185 C63 1184.01 63 1183.02 63 1182 C62.01 1182 61.02 1182 60 1182 Z " fill="#000101" transform="translate(612,78)"/>
<path d="M0 0 C4.95 0 9.9 0 15 0 C15 1.98 15 3.96 15 6 C16.98 6 18.96 6 21 6 C21 44.61 21 83.22 21 123 C21.99 123 22.98 123 24 123 C24 178.44 24 233.88 24 291 C24.99 291 25.98 291 27 291 C27 321.69 27 352.38 27 384 C27.99 384 28.98 384 30 384 C30 406.77 30 429.54 30 453 C30.99 453 31.98 453 33 453 C33 469.83 33 486.66 33 504 C33.99 504 34.98 504 36 504 C36 517.86 36 531.72 36 546 C36.99 546 37.98 546 39 546 C39 575.7 39 605.4 39 636 C39.99 636 40.98 636 42 636 C42 638.97 42 641.94 42 645 C42.99 645 43.98 645 45 645 C45 644.01 45 643.02 45 642 C46.98 642 48.96 642 51 642 C51 642.99 51 643.98 51 645 C51.99 645 52.98 645 54 645 C54 644.01 54 643.02 54 642 C54.99 642 55.98 642 57 642 C57 644.97 57 647.94 57 651 C57.99 651 58.98 651 60 651 C60 652.98 60 654.96 60 657 C61.98 657 63.96 657 66 657 C66 656.01 66 655.02 66 654 C67.98 654 69.96 654 72 654 C72 653.01 72 652.02 72 651 C72.99 651 73.98 651 75 651 C75 650.01 75 649.02 75 648 C76.98 648 78.96 648 81 648 C81 647.01 81 646.02 81 645 C81.99 645 82.98 645 84 645 C84 646.98 84 648.96 84 651 C83.01 651 82.02 651 81 651 C81 651.99 81 652.98 81 654 C80.01 654 79.02 654 78 654 C78 654.99 78 655.98 78 657 C77.01 657 76.02 657 75 657 C75 658.98 75 660.96 75 663 C74.01 663 73.02 663 72 663 C72 663.99 72 664.98 72 666 C71.01 666 70.02 666 69 666 C69 667.98 69 669.96 69 672 C68.01 672 67.02 672 66 672 C66 672.99 66 673.98 66 675 C65.01 675 64.02 675 63 675 C63 675.99 63 676.98 63 678 C62.01 678 61.02 678 60 678 C60 678.99 60 679.98 60 681 C59.01 681 58.02 681 57 681 C57 681.99 57 682.98 57 684 C56.01 684 55.02 684 54 684 C54 684.99 54 685.98 54 687 C53.01 687 52.02 687 51 687 C51 687.99 51 688.98 51 690 C49.02 690 47.04 690 45 690 C45 690.99 45 691.98 45 693 C44.01 693 43.02 693 42 693 C42 693.99 42 694.98 42 696 C39.03 696 36.06 696 33 696 C33 696.99 33 697.98 33 699 C32.01 699 31.02 699 30 699 C30 699.99 30 700.98 30 702 C29.01 702 28.02 702 27 702 C27 701.01 27 700.02 27 699 C26.01 699 25.02 699 24 699 C24 699.99 24 700.98 24 702 C23.01 702 22.02 702 21 702 C21 702.99 21 703.98 21 705 C20.01 705 19.02 705 18 705 C18 705.99 18 706.98 18 708 C17.01 708 16.02 708 15 708 C15 708.99 15 709.98 15 711 C14.01 711 13.02 711 12 711 C12 711.99 12 712.98 12 714 C11.01 714 10.02 714 9 714 C9 714.99 9 715.98 9 717 C8.01 717 7.02 717 6 717 C6 717.99 6 718.98 6 720 C5.01 720 4.02 720 3 720 C3 720.99 3 721.98 3 723 C2.01 723 1.02 723 0 723 C0 713.1 0 703.2 0 693 C1.98 693 3.96 693 6 693 C6 692.01 6 691.02 6 690 C6.99 690 7.98 690 9 690 C9 688.02 9 686.04 9 684 C10.98 684 12.96 684 15 684 C15 682.02 15 680.04 15 678 C15.99 678 16.98 678 18 678 C18 676.02 18 674.04 18 672 C16.02 672 14.04 672 12 672 C12 673.98 12 675.96 12 678 C11.01 678 10.02 678 9 678 C9 678.99 9 679.98 9 681 C8.01 681 7.02 681 6 681 C6 681.99 6 682.98 6 684 C5.01 684 4.02 684 3 684 C3 684.99 3 685.98 3 687 C2.01 687 1.02 687 0 687 C0 675.12 0 663.24 0 651 C0.99 651 1.98 651 3 651 C3 582.69 3 514.38 3 444 C2.01 444 1.02 444 0 444 C0 425.19 0 406.38 0 387 C-0.99 387 -1.98 387 -3 387 C-3 360.27 -3 333.54 -3 306 C-3.99 306 -4.98 306 -6 306 C-6 274.32 -6 242.64 -6 210 C-6.99 210 -7.98 210 -9 210 C-9 174.36 -9 138.72 -9 102 C-8.01 102 -7.02 102 -6 102 C-6 75.27 -6 48.54 -6 21 C-5.01 21 -4.02 21 -3 21 C-3 18.03 -3 15.06 -3 12 C-2.01 12 -1.02 12 0 12 C0 11.01 0 10.02 0 9 C0.99 9 1.98 9 3 9 C3 7.02 3 5.04 3 3 C2.01 3 1.02 3 0 3 C0 2.01 0 1.02 0 0 Z " fill="#2D2D2D" transform="translate(612,78)"/>
<path d="M0 0 C0.99 0 1.98 0 3 0 C3 6.93 3 13.86 3 21 C4.98 21 6.96 21 9 21 C9 20.01 9 19.02 9 18 C10.98 18 12.96 18 15 18 C15 17.01 15 16.02 15 15 C16.98 15 18.96 15 21 15 C21 15.99 21 16.98 21 18 C21.99 18 22.98 18 24 18 C24 19.98 24 21.96 24 24 C23.01 24 22.02 24 21 24 C21 26.97 21 29.94 21 33 C20.01 33 19.02 33 18 33 C18 35.97 18 38.94 18 42 C17.01 42 16.02 42 15 42 C15 43.98 15 45.96 15 48 C15.99 48 16.98 48 18 48 C18 54.93 18 61.86 18 69 C18.99 69 19.98 69 21 69 C21 79.89 21 90.78 21 102 C20.01 102 19.02 102 18 102 C18 107.94 18 113.88 18 120 C18.99 120 19.98 120 21 120 C21 165.54 21 211.08 21 258 C21.99 258 22.98 258 24 258 C24 262.95 24 267.9 24 273 C23.01 273 22.02 273 21 273 C21 277.95 21 282.9 21 288 C21.99 288 22.98 288 24 288 C24 299.88 24 311.76 24 324 C22.02 324 20.04 324 18 324 C18 330.93 18 337.86 18 345 C17.01 345 16.02 345 15 345 C15 349.95 15 354.9 15 360 C14.01 360 13.02 360 12 360 C12 349.11 12 338.22 12 327 C11.01 327 10.02 327 9 327 C9 326.01 9 325.02 9 324 C9.99 324 10.98 324 12 324 C12 321.03 12 318.06 12 315 C11.01 315 10.02 315 9 315 C9 315.99 9 316.98 9 318 C7.02 318 5.04 318 3 318 C3 317.01 3 316.02 3 315 C1.02 315 -0.96 315 -3 315 C-3 314.01 -3 313.02 -3 312 C-3.99 312 -4.98 312 -6 312 C-6 311.01 -6 310.02 -6 309 C-7.98 309 -9.96 309 -12 309 C-12 308.01 -12 307.02 -12 306 C-12.99 306 -13.98 306 -15 306 C-15 305.01 -15 304.02 -15 303 C-15.99 303 -16.98 303 -18 303 C-18 301.02 -18 299.04 -18 297 C-18.99 297 -19.98 297 -21 297 C-21 296.01 -21 295.02 -21 294 C-21.99 294 -22.98 294 -24 294 C-24 293.01 -24 292.02 -24 291 C-24.99 291 -25.98 291 -27 291 C-27 274.17 -27 257.34 -27 240 C-27.99 240 -28.98 240 -30 240 C-30 212.28 -30 184.56 -30 156 C-30.99 156 -31.98 156 -33 156 C-33 133.23 -33 110.46 -33 87 C-33.99 87 -34.98 87 -36 87 C-36 68.19 -36 49.38 -36 30 C-36.99 30 -37.98 30 -39 30 C-39 29.01 -39 28.02 -39 27 C-38.01 27 -37.02 27 -36 27 C-36 21.06 -36 15.12 -36 9 C-32.04 9 -28.08 9 -24 9 C-24 9.99 -24 10.98 -24 12 C-23.01 12 -22.02 12 -21 12 C-21 11.01 -21 10.02 -21 9 C-18.03 9 -15.06 9 -12 9 C-12 8.01 -12 7.02 -12 6 C-10.02 6 -8.04 6 -6 6 C-6 5.01 -6 4.02 -6 3 C-4.02 3 -2.04 3 0 3 C0 2.01 0 1.02 0 0 Z " fill="#AFAFAF" transform="translate(660,867)"/>
<path d="M0 0 C4.95 0 9.9 0 15 0 C15 0.99 15 1.98 15 3 C18.96 3 22.92 3 27 3 C27 3.99 27 4.98 27 6 C28.98 6 30.96 6 33 6 C33 6.99 33 7.98 33 9 C34.98 9 36.96 9 39 9 C39 9.99 39 10.98 39 12 C39.99 12 40.98 12 42 12 C42 12.99 42 13.98 42 15 C42.99 15 43.98 15 45 15 C45 16.98 45 18.96 45 21 C45.99 21 46.98 21 48 21 C48 21.99 48 22.98 48 24 C48.99 24 49.98 24 51 24 C51 25.98 51 27.96 51 30 C51.99 30 52.98 30 54 30 C54 31.98 54 33.96 54 36 C54.99 36 55.98 36 57 36 C57 37.98 57 39.96 57 42 C57.99 42 58.98 42 60 42 C60 45.96 60 49.92 60 54 C60.99 54 61.98 54 63 54 C63 57.96 63 61.92 63 66 C63.99 66 64.98 66 66 66 C66 68.97 66 71.94 66 75 C66.99 75 67.98 75 69 75 C69 79.95 69 84.9 69 90 C69.99 90 70.98 90 72 90 C72 101.88 72 113.76 72 126 C71.01 126 70.02 126 69 126 C69 130.95 69 135.9 69 141 C70.98 141 72.96 141 75 141 C75 143.97 75 146.94 75 150 C76.98 150 78.96 150 81 150 C81 151.98 81 153.96 81 156 C81.99 156 82.98 156 84 156 C84 156.99 84 157.98 84 159 C84.99 159 85.98 159 87 159 C87 159.99 87 160.98 87 162 C87.99 162 88.98 162 90 162 C90 162.99 90 163.98 90 165 C92.97 165 95.94 165 99 165 C99 164.01 99 163.02 99 162 C99.99 162 100.98 162 102 162 C102 161.01 102 160.02 102 159 C102.99 159 103.98 159 105 159 C105 158.01 105 157.02 105 156 C105.99 156 106.98 156 108 156 C108 155.01 108 154.02 108 153 C108.99 153 109.98 153 111 153 C111 151.02 111 149.04 111 147 C110.01 147 109.02 147 108 147 C108 146.01 108 145.02 108 144 C107.01 144 106.02 144 105 144 C105 142.02 105 140.04 105 138 C105.99 138 106.98 138 108 138 C108 137.01 108 136.02 108 135 C109.98 135 111.96 135 114 135 C114 135.99 114 136.98 114 138 C114.99 138 115.98 138 117 138 C117 144.93 117 151.86 117 159 C116.01 159 115.02 159 114 159 C114 161.97 114 164.94 114 168 C113.01 168 112.02 168 111 168 C111 169.98 111 171.96 111 174 C110.01 174 109.02 174 108 174 C108 176.97 108 179.94 108 183 C107.01 183 106.02 183 105 183 C105 183.99 105 184.98 105 186 C104.01 186 103.02 186 102 186 C102 186.99 102 187.98 102 189 C100.02 189 98.04 189 96 189 C96 189.99 96 190.98 96 192 C95.01 192 94.02 192 93 192 C93 192.99 93 193.98 93 195 C93.99 195 94.98 195 96 195 C96 195.99 96 196.98 96 198 C96.99 198 97.98 198 99 198 C99 198.99 99 199.98 99 201 C100.98 201 102.96 201 105 201 C105 202.98 105 204.96 105 207 C106.98 207 108.96 207 111 207 C111 206.01 111 205.02 111 204 C111.99 204 112.98 204 114 204 C114 203.01 114 202.02 114 201 C114.99 201 115.98 201 117 201 C117 200.01 117 199.02 117 198 C117.99 198 118.98 198 120 198 C120 197.01 120 196.02 120 195 C120.99 195 121.98 195 123 195 C123 194.01 123 193.02 123 192 C123.99 192 124.98 192 126 192 C126 191.01 126 190.02 126 189 C126.99 189 127.98 189 129 189 C129 187.02 129 185.04 129 183 C129.99 183 130.98 183 132 183 C132 182.01 132 181.02 132 180 C132.99 180 133.98 180 135 180 C135 178.02 135 176.04 135 174 C135.99 174 136.98 174 138 174 C138 172.02 138 170.04 138 168 C138.99 168 139.98 168 141 168 C141 166.02 141 164.04 141 162 C141.99 162 142.98 162 144 162 C144 159.03 144 156.06 144 153 C143.01 153 142.02 153 141 153 C141 151.02 141 149.04 141 147 C142.98 147 144.96 147 147 147 C147 147.99 147 148.98 147 150 C147.99 150 148.98 150 150 150 C150 155.94 150 161.88 150 168 C149.01 168 148.02 168 147 168 C147 169.98 147 171.96 147 174 C146.01 174 145.02 174 144 174 C144 175.98 144 177.96 144 180 C143.01 180 142.02 180 141 180 C141 181.98 141 183.96 141 186 C140.01 186 139.02 186 138 186 C138 186.99 138 187.98 138 189 C137.01 189 136.02 189 135 189 C135 190.98 135 192.96 135 195 C134.01 195 133.02 195 132 195 C132 195.99 132 196.98 132 198 C131.01 198 130.02 198 129 198 C129 198.99 129 199.98 129 201 C128.01 201 127.02 201 126 201 C126 201.99 126 202.98 126 204 C125.01 204 124.02 204 123 204 C123 204.99 123 205.98 123 207 C122.01 207 121.02 207 120 207 C120 207.99 120 208.98 120 210 C119.01 210 118.02 210 117 210 C117 210.99 117 211.98 117 213 C116.01 213 115.02 213 114 213 C114 213.99 114 214.98 114 216 C112.02 216 110.04 216 108 216 C108 216.99 108 217.98 108 219 C107.01 219 106.02 219 105 219 C105 219.99 105 220.98 105 222 C98.07 222 91.14 222 84 222 C84 221.01 84 220.02 84 219 C82.02 219 80.04 219 78 219 C78 218.01 78 217.02 78 216 C77.01 216 76.02 216 75 216 C75 215.01 75 214.02 75 213 C74.01 213 73.02 213 72 213 C72 212.01 72 211.02 72 210 C71.01 210 70.02 210 69 210 C69 208.02 69 206.04 69 204 C68.01 204 67.02 204 66 204 C66 202.02 66 200.04 66 198 C65.01 198 64.02 198 63 198 C63 195.03 63 192.06 63 189 C62.01 189 61.02 189 60 189 C60 183.06 60 177.12 60 171 C59.01 171 58.02 171 57 171 C57 172.98 57 174.96 57 177 C56.01 177 55.02 177 54 177 C54 179.97 54 182.94 54 186 C53.01 186 52.02 186 51 186 C51 188.97 51 191.94 51 195 C50.01 195 49.02 195 48 195 C48 199.95 48 204.9 48 210 C47.01 210 46.02 210 45 210 C45 213.96 45 217.92 45 222 C44.01 222 43.02 222 42 222 C42 221.01 42 220.02 42 219 C41.01 219 40.02 219 39 219 C39 218.01 39 217.02 39 216 C38.01 216 37.02 216 36 216 C36 213.03 36 210.06 36 207 C36.99 207 37.98 207 39 207 C39 200.07 39 193.14 39 186 C39.99 186 40.98 186 42 186 C42 183.03 42 180.06 42 177 C42.99 177 43.98 177 45 177 C45 174.03 45 171.06 45 168 C45.99 168 46.98 168 48 168 C48 165.03 48 162.06 48 159 C48.99 159 49.98 159 51 159 C51 157.02 51 155.04 51 153 C51.99 153 52.98 153 54 153 C54 151.02 54 149.04 54 147 C54.99 147 55.98 147 57 147 C57 146.01 57 145.02 57 144 C57.99 144 58.98 144 60 144 C60 143.01 60 142.02 60 141 C60.99 141 61.98 141 63 141 C63 134.07 63 127.14 63 120 C63.99 120 64.98 120 66 120 C66 110.1 66 100.2 66 90 C65.01 90 64.02 90 63 90 C63 88.02 63 86.04 63 84 C62.01 84 61.02 84 60 84 C60 80.04 60 76.08 60 72 C59.01 72 58.02 72 57 72 C57 68.04 57 64.08 57 60 C56.01 60 55.02 60 54 60 C54 56.04 54 52.08 54 48 C53.01 48 52.02 48 51 48 C51 46.02 51 44.04 51 42 C50.01 42 49.02 42 48 42 C48 40.02 48 38.04 48 36 C47.01 36 46.02 36 45 36 C45 34.02 45 32.04 45 30 C44.01 30 43.02 30 42 30 C42 29.01 42 28.02 42 27 C41.01 27 40.02 27 39 27 C39 25.02 39 23.04 39 21 C38.01 21 37.02 21 36 21 C36 20.01 36 19.02 36 18 C34.02 18 32.04 18 30 18 C30 17.01 30 16.02 30 15 C28.02 15 26.04 15 24 15 C24 14.01 24 13.02 24 12 C20.04 12 16.08 12 12 12 C12 11.01 12 10.02 12 9 C9.03 9 6.06 9 3 9 C3 9.99 3 10.98 3 12 C-1.95 12 -6.9 12 -12 12 C-12 12.99 -12 13.98 -12 15 C-13.98 15 -15.96 15 -18 15 C-18 15.99 -18 16.98 -18 18 C-18.99 18 -19.98 18 -21 18 C-21 18.99 -21 19.98 -21 21 C-22.98 21 -24.96 21 -27 21 C-27 21.99 -27 22.98 -27 24 C-28.98 24 -30.96 24 -33 24 C-33 24.99 -33 25.98 -33 27 C-34.98 27 -36.96 27 -39 27 C-39 27.99 -39 28.98 -39 30 C-40.98 30 -42.96 30 -45 30 C-45 30.99 -45 31.98 -45 33 C-45.99 33 -46.98 33 -48 33 C-48 33.99 -48 34.98 -48 36 C-48.99 36 -49.98 36 -51 36 C-51 36.99 -51 37.98 -51 39 C-51.99 39 -52.98 39 -54 39 C-54 39.99 -54 40.98 -54 42 C-54.99 42 -55.98 42 -57 42 C-57 42.99 -57 43.98 -57 45 C-57.99 45 -58.98 45 -60 45 C-60 45.99 -60 46.98 -60 48 C-60.99 48 -61.98 48 -63 48 C-63 48.99 -63 49.98 -63 51 C-63.99 51 -64.98 51 -66 51 C-66 51.99 -66 52.98 -66 54 C-66.99 54 -67.98 54 -69 54 C-69 54.99 -69 55.98 -69 57 C-69.99 57 -70.98 57 -72 57 C-72 57.99 -72 58.98 -72 60 C-72.99 60 -73.98 60 -75 60 C-75 60.99 -75 61.98 -75 63 C-75.99 63 -76.98 63 -78 63 C-78 64.98 -78 66.96 -78 69 C-79.98 69 -81.96 69 -84 69 C-84 70.98 -84 72.96 -84 75 C-84.99 75 -85.98 75 -87 75 C-87 76.98 -87 78.96 -87 81 C-87.99 81 -88.98 81 -90 81 C-90 82.98 -90 84.96 -90 87 C-90.99 87 -91.98 87 -93 87 C-93 89.97 -93 92.94 -93 96 C-93.99 96 -94.98 96 -96 96 C-96 97.98 -96 99.96 -96 102 C-96.99 102 -97.98 102 -99 102 C-99 104.97 -99 107.94 -99 111 C-99.99 111 -100.98 111 -102 111 C-102 112.98 -102 114.96 -102 117 C-102.99 117 -103.98 117 -105 117 C-105 119.97 -105 122.94 -105 126 C-105.99 126 -106.98 126 -108 126 C-108 129.96 -108 133.92 -108 138 C-108.99 138 -109.98 138 -111 138 C-111 140.97 -111 143.94 -111 147 C-111.99 147 -112.98 147 -114 147 C-114 153.93 -114 160.86 -114 168 C-114.99 168 -115.98 168 -117 168 C-117 169.98 -117 171.96 -117 174 C-116.01 174 -115.02 174 -114 174 C-114 176.97 -114 179.94 -114 183 C-114.99 183 -115.98 183 -117 183 C-117 183.99 -117 184.98 -117 186 C-114.03 186 -111.06 186 -108 186 C-108 185.01 -108 184.02 -108 183 C-105.03 183 -102.06 183 -99 183 C-99 182.01 -99 181.02 -99 180 C-94.05 180 -89.1 180 -84 180 C-84 180.99 -84 181.98 -84 183 C-80.04 183 -76.08 183 -72 183 C-72 183.99 -72 184.98 -72 186 C-70.02 186 -68.04 186 -66 186 C-66 186.99 -66 187.98 -66 189 C-64.02 189 -62.04 189 -60 189 C-60 189.99 -60 190.98 -60 192 C-59.01 192 -58.02 192 -57 192 C-57 192.99 -57 193.98 -57 195 C-54.03 195 -51.06 195 -48 195 C-48 195.99 -48 196.98 -48 198 C-47.01 198 -46.02 198 -45 198 C-45 198.99 -45 199.98 -45 201 C-44.01 201 -43.02 201 -42 201 C-42 201.99 -42 202.98 -42 204 C-41.01 204 -40.02 204 -39 204 C-39 204.99 -39 205.98 -39 207 C-38.01 207 -37.02 207 -36 207 C-36 208.98 -36 210.96 -36 213 C-35.01 213 -34.02 213 -33 213 C-33 213.99 -33 214.98 -33 216 C-32.01 216 -31.02 216 -30 216 C-30 216.99 -30 217.98 -30 219 C-29.01 219 -28.02 219 -27 219 C-27 219.99 -27 220.98 -27 222 C-26.01 222 -25.02 222 -24 222 C-24 222.99 -24 223.98 -24 225 C-23.01 225 -22.02 225 -21 225 C-21 225.99 -21 226.98 -21 228 C-20.01 228 -19.02 228 -18 228 C-18 228.99 -18 229.98 -18 231 C-17.01 231 -16.02 231 -15 231 C-15 233.97 -15 236.94 -15 240 C-14.01 240 -13.02 240 -12 240 C-12 240.99 -12 241.98 -12 243 C-11.01 243 -10.02 243 -9 243 C-9 244.98 -9 246.96 -9 249 C-8.01 249 -7.02 249 -6 249 C-6 252.96 -6 256.92 -6 261 C-5.01 261 -4.02 261 -3 261 C-3 264.96 -3 268.92 -3 273 C-2.01 273 -1.02 273 0 273 C0 279.93 0 286.86 0 294 C-0.99 294 -1.98 294 -3 294 C-3 293.01 -3 292.02 -3 291 C-3.99 291 -4.98 291 -6 291 C-6 286.05 -6 281.1 -6 276 C-6.99 276 -7.98 276 -9 276 C-9 272.04 -9 268.08 -9 264 C-9.99 264 -10.98 264 -12 264 C-12 260.04 -12 256.08 -12 252 C-12.99 252 -13.98 252 -15 252 C-15 250.02 -15 248.04 -15 246 C-15.99 246 -16.98 246 -18 246 C-18 245.01 -18 244.02 -18 243 C-18.99 243 -19.98 243 -21 243 C-21 240.03 -21 237.06 -21 234 C-21.99 234 -22.98 234 -24 234 C-24 233.01 -24 232.02 -24 231 C-24.99 231 -25.98 231 -27 231 C-27 230.01 -27 229.02 -27 228 C-27.99 228 -28.98 228 -30 228 C-30 227.01 -30 226.02 -30 225 C-30.99 225 -31.98 225 -33 225 C-33 224.01 -33 223.02 -33 222 C-33.99 222 -34.98 222 -36 222 C-36 221.01 -36 220.02 -36 219 C-36.99 219 -37.98 219 -39 219 C-39 218.01 -39 217.02 -39 216 C-39.99 216 -40.98 216 -42 216 C-42 214.02 -42 212.04 -42 210 C-42.99 210 -43.98 210 -45 210 C-45 209.01 -45 208.02 -45 207 C-45.99 207 -46.98 207 -48 207 C-48 206.01 -48 205.02 -48 204 C-50.97 204 -53.94 204 -57 204 C-57 203.01 -57 202.02 -57 201 C-57.99 201 -58.98 201 -60 201 C-60 200.01 -60 199.02 -60 198 C-61.98 198 -63.96 198 -66 198 C-66 197.01 -66 196.02 -66 195 C-67.98 195 -69.96 195 -72 195 C-72 194.01 -72 193.02 -72 192 C-75.96 192 -79.92 192 -84 192 C-84 191.01 -84 190.02 -84 189 C-87.96 189 -91.92 189 -96 189 C-96 189.99 -96 190.98 -96 192 C-98.97 192 -101.94 192 -105 192 C-105 192.99 -105 193.98 -105 195 C-106.98 195 -108.96 195 -111 195 C-111 195.99 -111 196.98 -111 198 C-112.98 198 -114.96 198 -117 198 C-117 198.99 -117 199.98 -117 201 C-118.98 201 -120.96 201 -123 201 C-123 201.99 -123 202.98 -123 204 C-123.99 204 -124.98 204 -126 204 C-126 205.98 -126 207.96 -126 210 C-127.98 210 -129.96 210 -132 210 C-132 211.98 -132 213.96 -132 216 C-133.98 216 -135.96 216 -138 216 C-138 215.01 -138 214.02 -138 213 C-138.99 213 -139.98 213 -141 213 C-141 211.02 -141 209.04 -141 207 C-140.01 207 -139.02 207 -138 207 C-138 206.01 -138 205.02 -138 204 C-138.99 204 -139.98 204 -141 204 C-141 202.02 -141 200.04 -141 198 C-141.99 198 -142.98 198 -144 198 C-144 193.05 -144 188.1 -144 183 C-143.01 183 -142.02 183 -141 183 C-141 177.06 -141 171.12 -141 165 C-140.01 165 -139.02 165 -138 165 C-138 161.04 -138 157.08 -138 153 C-137.01 153 -136.02 153 -135 153 C-135 151.02 -135 149.04 -135 147 C-134.01 147 -133.02 147 -132 147 C-132 144.03 -132 141.06 -132 138 C-131.01 138 -130.02 138 -129 138 C-129 136.02 -129 134.04 -129 132 C-128.01 132 -127.02 132 -126 132 C-126 130.02 -126 128.04 -126 126 C-125.01 126 -124.02 126 -123 126 C-123 123.03 -123 120.06 -123 117 C-122.01 117 -121.02 117 -120 117 C-120 115.02 -120 113.04 -120 111 C-119.01 111 -118.02 111 -117 111 C-117 110.01 -117 109.02 -117 108 C-116.01 108 -115.02 108 -114 108 C-114 106.02 -114 104.04 -114 102 C-113.01 102 -112.02 102 -111 102 C-111 100.02 -111 98.04 -111 96 C-110.01 96 -109.02 96 -108 96 C-108 94.02 -108 92.04 -108 90 C-107.01 90 -106.02 90 -105 90 C-105 88.02 -105 86.04 -105 84 C-104.01 84 -103.02 84 -102 84 C-102 83.01 -102 82.02 -102 81 C-101.01 81 -100.02 81 -99 81 C-99 80.01 -99 79.02 -99 78 C-98.01 78 -97.02 78 -96 78 C-96 77.01 -96 76.02 -96 75 C-95.01 75 -94.02 75 -93 75 C-93 72.03 -93 69.06 -93 66 C-92.01 66 -91.02 66 -90 66 C-90 65.01 -90 64.02 -90 63 C-89.01 63 -88.02 63 -87 63 C-87 62.01 -87 61.02 -87 60 C-86.01 60 -85.02 60 -84 60 C-84 59.01 -84 58.02 -84 57 C-83.01 57 -82.02 57 -81 57 C-81 56.01 -81 55.02 -81 54 C-80.01 54 -79.02 54 -78 54 C-78 53.01 -78 52.02 -78 51 C-77.01 51 -76.02 51 -75 51 C-75 50.01 -75 49.02 -75 48 C-74.01 48 -73.02 48 -72 48 C-72 47.01 -72 46.02 -72 45 C-71.01 45 -70.02 45 -69 45 C-69 44.01 -69 43.02 -69 42 C-68.01 42 -67.02 42 -66 42 C-66 41.01 -66 40.02 -66 39 C-65.01 39 -64.02 39 -63 39 C-63 38.01 -63 37.02 -63 36 C-62.01 36 -61.02 36 -60 36 C-60 35.01 -60 34.02 -60 33 C-59.01 33 -58.02 33 -57 33 C-57 32.01 -57 31.02 -57 30 C-56.01 30 -55.02 30 -54 30 C-54 29.01 -54 28.02 -54 27 C-53.01 27 -52.02 27 -51 27 C-51 26.01 -51 25.02 -51 24 C-50.01 24 -49.02 24 -48 24 C-48 23.01 -48 22.02 -48 21 C-46.02 21 -44.04 21 -42 21 C-42 20.01 -42 19.02 -42 18 C-40.02 18 -38.04 18 -36 18 C-36 17.01 -36 16.02 -36 15 C-34.02 15 -32.04 15 -30 15 C-30 14.01 -30 13.02 -30 12 C-28.02 12 -26.04 12 -24 12 C-24 11.01 -24 10.02 -24 9 C-23.01 9 -22.02 9 -21 9 C-21 8.01 -21 7.02 -21 6 C-19.02 6 -17.04 6 -15 6 C-15 5.01 -15 4.02 -15 3 C-10.05 3 -5.1 3 0 3 C0 2.01 0 1.02 0 0 Z M-126 189 C-126 189.99 -126 190.98 -126 192 C-124.02 192 -122.04 192 -120 192 C-120 191.01 -120 190.02 -120 189 C-121.98 189 -123.96 189 -126 189 Z M-135 195 C-135 195.99 -135 196.98 -135 198 C-134.01 198 -133.02 198 -132 198 C-132 197.01 -132 196.02 -132 195 C-132.99 195 -133.98 195 -135 195 Z " fill="#000000" transform="translate(900,906)"/>
<path d="M0 0 C0.99 0 1.98 0 3 0 C3 0.99 3 1.98 3 3 C3.99 3 4.98 3 6 3 C6 3.99 6 4.98 6 6 C6.99 6 7.98 6 9 6 C9 7.98 9 9.96 9 12 C9.99 12 10.98 12 12 12 C12 12.99 12 13.98 12 15 C12.99 15 13.98 15 15 15 C15 15.99 15 16.98 15 18 C16.98 18 18.96 18 21 18 C21 18.99 21 19.98 21 21 C21.99 21 22.98 21 24 21 C24 21.99 24 22.98 24 24 C25.98 24 27.96 24 30 24 C30 24.99 30 25.98 30 27 C31.98 27 33.96 27 36 27 C36 26.01 36 25.02 36 24 C36.99 24 37.98 24 39 24 C39 26.97 39 29.94 39 33 C38.01 33 37.02 33 36 33 C36 33.99 36 34.98 36 36 C36.99 36 37.98 36 39 36 C39 46.89 39 57.78 39 69 C39.99 69 40.98 69 42 69 C42 64.05 42 59.1 42 54 C42.99 54 43.98 54 45 54 C45 47.07 45 40.14 45 33 C45.99 33 46.98 33 48 33 C48 36.96 48 40.92 48 45 C48.99 45 49.98 45 51 45 C51 52.92 51 60.84 51 69 C50.01 69 49.02 69 48 69 C48 69.99 48 70.98 48 72 C46.02 72 44.04 72 42 72 C42 73.98 42 75.96 42 78 C39.03 78 36.06 78 33 78 C33 78.99 33 79.98 33 81 C34.98 81 36.96 81 39 81 C39 81.99 39 82.98 39 84 C38.01 84 37.02 84 36 84 C36 84.99 36 85.98 36 87 C37.98 87 39.96 87 42 87 C42 86.01 42 85.02 42 84 C42.99 84 43.98 84 45 84 C45 84.99 45 85.98 45 87 C45.99 87 46.98 87 48 87 C48 98.88 48 110.76 48 123 C47.01 123 46.02 123 45 123 C45 125.97 45 128.94 45 132 C44.01 132 43.02 132 42 132 C42 134.97 42 137.94 42 141 C39.03 141 36.06 141 33 141 C33 141.99 33 142.98 33 144 C32.01 144 31.02 144 30 144 C30 144.99 30 145.98 30 147 C29.01 147 28.02 147 27 147 C27 147.99 27 148.98 27 150 C19.08 150 11.16 150 3 150 C3 149.01 3 148.02 3 147 C2.01 147 1.02 147 0 147 C0 146.01 0 145.02 0 144 C-2.97 144 -5.94 144 -9 144 C-9 143.01 -9 142.02 -9 141 C-9.99 141 -10.98 141 -12 141 C-12 140.01 -12 139.02 -12 138 C-14.97 138 -17.94 138 -21 138 C-21 136.02 -21 134.04 -21 132 C-22.98 132 -24.96 132 -27 132 C-27 131.01 -27 130.02 -27 129 C-28.98 129 -30.96 129 -33 129 C-33 128.01 -33 127.02 -33 126 C-34.98 126 -36.96 126 -39 126 C-39 125.01 -39 124.02 -39 123 C-39.99 123 -40.98 123 -42 123 C-42 120.03 -42 117.06 -42 114 C-41.01 114 -40.02 114 -39 114 C-39 113.01 -39 112.02 -39 111 C-34.05 111 -29.1 111 -24 111 C-24 110.01 -24 109.02 -24 108 C-20.04 108 -16.08 108 -12 108 C-12 106.02 -12 104.04 -12 102 C-11.01 102 -10.02 102 -9 102 C-9 98.04 -9 94.08 -9 90 C-8.01 90 -7.02 90 -6 90 C-6 81.09 -6 72.18 -6 63 C-6.99 63 -7.98 63 -9 63 C-9 62.01 -9 61.02 -9 60 C-9.99 60 -10.98 60 -12 60 C-12 58.02 -12 56.04 -12 54 C-12.99 54 -13.98 54 -15 54 C-15 53.01 -15 52.02 -15 51 C-15.99 51 -16.98 51 -18 51 C-18 49.02 -18 47.04 -18 45 C-17.01 45 -16.02 45 -15 45 C-15 44.01 -15 43.02 -15 42 C-13.02 42 -11.04 42 -9 42 C-9 37.05 -9 32.1 -9 27 C-9.99 27 -10.98 27 -12 27 C-12 25.02 -12 23.04 -12 21 C-11.01 21 -10.02 21 -9 21 C-9 20.01 -9 19.02 -9 18 C-6.03 18 -3.06 18 0 18 C0 12.06 0 6.12 0 0 Z M9 69 C9 69.99 9 70.98 9 72 C9.99 72 10.98 72 12 72 C12 71.01 12 70.02 12 69 C11.01 69 10.02 69 9 69 Z M21 90 C21 90.99 21 91.98 21 93 C21.99 93 22.98 93 24 93 C24 92.01 24 91.02 24 90 C23.01 90 22.02 90 21 90 Z M39 102 C39 102.99 39 103.98 39 105 C39.99 105 40.98 105 42 105 C42 104.01 42 103.02 42 102 C41.01 102 40.02 102 39 102 Z " fill="#020202" transform="translate(633,1158)"/>
<path d="M0 0 C1.98 0 3.96 0 6 0 C6 3.96 6 7.92 6 12 C5.01 12 4.02 12 3 12 C3 14.97 3 17.94 3 21 C3.99 21 4.98 21 6 21 C6 23.97 6 26.94 6 30 C6.99 30 7.98 30 9 30 C9 32.97 9 35.94 9 39 C9.99 39 10.98 39 12 39 C12 41.97 12 44.94 12 48 C12.99 48 13.98 48 15 48 C15 49.98 15 51.96 15 54 C15.99 54 16.98 54 18 54 C18 54.99 18 55.98 18 57 C18.99 57 19.98 57 21 57 C21 57.99 21 58.98 21 60 C21.99 60 22.98 60 24 60 C24 62.97 24 65.94 24 69 C24.99 69 25.98 69 27 69 C27 71.97 27 74.94 27 78 C27.99 78 28.98 78 30 78 C30 78.99 30 79.98 30 81 C30.99 81 31.98 81 33 81 C33 81.99 33 82.98 33 84 C33.99 84 34.98 84 36 84 C36 85.98 36 87.96 36 90 C36.99 90 37.98 90 39 90 C39 90.99 39 91.98 39 93 C39.99 93 40.98 93 42 93 C42 94.98 42 96.96 42 99 C42.99 99 43.98 99 45 99 C45 99.99 45 100.98 45 102 C45.99 102 46.98 102 48 102 C48 102.99 48 103.98 48 105 C48.99 105 49.98 105 51 105 C51 105.99 51 106.98 51 108 C51.99 108 52.98 108 54 108 C54 113.94 54 119.88 54 126 C55.98 126 57.96 126 60 126 C60 126.99 60 127.98 60 129 C60.99 129 61.98 129 63 129 C63 129.99 63 130.98 63 132 C68.94 132 74.88 132 81 132 C81 131.01 81 130.02 81 129 C85.95 129 90.9 129 96 129 C96 128.01 96 127.02 96 126 C99.96 126 103.92 126 108 126 C108 125.01 108 124.02 108 123 C109.98 123 111.96 123 114 123 C114 122.01 114 121.02 114 120 C114.99 120 115.98 120 117 120 C117 119.01 117 118.02 117 117 C117.99 117 118.98 117 120 117 C120 116.01 120 115.02 120 114 C120.99 114 121.98 114 123 114 C123 113.01 123 112.02 123 111 C124.98 111 126.96 111 129 111 C129 110.01 129 109.02 129 108 C129.99 108 130.98 108 132 108 C132 107.01 132 106.02 132 105 C132.99 105 133.98 105 135 105 C135 104.01 135 103.02 135 102 C135.99 102 136.98 102 138 102 C138 101.01 138 100.02 138 99 C138.99 99 139.98 99 141 99 C141 98.01 141 97.02 141 96 C141.99 96 142.98 96 144 96 C144 95.01 144 94.02 144 93 C144.99 93 145.98 93 147 93 C147 92.01 147 91.02 147 90 C147.99 90 148.98 90 150 90 C150 89.01 150 88.02 150 87 C150.99 87 151.98 87 153 87 C153 86.01 153 85.02 153 84 C153.99 84 154.98 84 156 84 C156 82.02 156 80.04 156 78 C156.99 78 157.98 78 159 78 C159 77.01 159 76.02 159 75 C159.99 75 160.98 75 162 75 C162 73.02 162 71.04 162 69 C162.99 69 163.98 69 165 69 C165 67.02 165 65.04 165 63 C165.99 63 166.98 63 168 63 C168 62.01 168 61.02 168 60 C168.99 60 169.98 60 171 60 C171 58.02 171 56.04 171 54 C171.99 54 172.98 54 174 54 C174 52.02 174 50.04 174 48 C174.99 48 175.98 48 177 48 C177 45.03 177 42.06 177 39 C177.99 39 178.98 39 180 39 C180 37.02 180 35.04 180 33 C180.99 33 181.98 33 183 33 C183 31.02 183 29.04 183 27 C183.99 27 184.98 27 186 27 C186 24.03 186 21.06 186 18 C186.99 18 187.98 18 189 18 C189 16.02 189 14.04 189 12 C190.98 12 192.96 12 195 12 C195 15.96 195 19.92 195 24 C194.01 24 193.02 24 192 24 C192 26.97 192 29.94 192 33 C191.01 33 190.02 33 189 33 C189 34.98 189 36.96 189 39 C188.01 39 187.02 39 186 39 C186 40.98 186 42.96 186 45 C185.01 45 184.02 45 183 45 C183 47.97 183 50.94 183 54 C182.01 54 181.02 54 180 54 C180 55.98 180 57.96 180 60 C179.01 60 178.02 60 177 60 C177 61.98 177 63.96 177 66 C176.01 66 175.02 66 174 66 C174 66.99 174 67.98 174 69 C173.01 69 172.02 69 171 69 C171 70.98 171 72.96 171 75 C170.01 75 169.02 75 168 75 C168 76.98 168 78.96 168 81 C167.01 81 166.02 81 165 81 C165 81.99 165 82.98 165 84 C164.01 84 163.02 84 162 84 C162 85.98 162 87.96 162 90 C161.01 90 160.02 90 159 90 C159 90.99 159 91.98 159 93 C158.01 93 157.02 93 156 93 C156 93.99 156 94.98 156 96 C155.01 96 154.02 96 153 96 C153 96.99 153 97.98 153 99 C152.01 99 151.02 99 150 99 C150 99.99 150 100.98 150 102 C149.01 102 148.02 102 147 102 C147 102.99 147 103.98 147 105 C146.01 105 145.02 105 144 105 C144 105.99 144 106.98 144 108 C143.01 108 142.02 108 141 108 C141 108.99 141 109.98 141 111 C140.01 111 139.02 111 138 111 C138 111.99 138 112.98 138 114 C137.01 114 136.02 114 135 114 C135 114.99 135 115.98 135 117 C134.01 117 133.02 117 132 117 C132 117.99 132 118.98 132 120 C130.02 120 128.04 120 126 120 C126 120.99 126 121.98 126 123 C125.01 123 124.02 123 123 123 C123 123.99 123 124.98 123 126 C122.01 126 121.02 126 120 126 C120 126.99 120 127.98 120 129 C119.01 129 118.02 129 117 129 C117 129.99 117 130.98 117 132 C115.02 132 113.04 132 111 132 C111 132.99 111 133.98 111 135 C107.04 135 103.08 135 99 135 C99 135.99 99 136.98 99 138 C94.05 138 89.1 138 84 138 C84 138.99 84 139.98 84 141 C77.07 141 70.14 141 63 141 C63 140.01 63 139.02 63 138 C59.04 138 55.08 138 51 138 C51 137.01 51 136.02 51 135 C48.03 135 45.06 135 42 135 C42 134.01 42 133.02 42 132 C41.01 132 40.02 132 39 132 C39 132.99 39 133.98 39 135 C38.01 135 37.02 135 36 135 C36 134.01 36 133.02 36 132 C35.01 132 34.02 132 33 132 C33 131.01 33 130.02 33 129 C32.01 129 31.02 129 30 129 C30 127.02 30 125.04 30 123 C28.02 123 26.04 123 24 123 C24 124.98 24 126.96 24 129 C23.01 129 22.02 129 21 129 C21 130.98 21 132.96 21 135 C18.03 135 15.06 135 12 135 C12 133.02 12 131.04 12 129 C9.03 129 6.06 129 3 129 C3 124.05 3 119.1 3 114 C2.01 114 1.02 114 0 114 C0 108.06 0 102.12 0 96 C0.99 96 1.98 96 3 96 C3 91.05 3 86.1 3 81 C2.01 81 1.02 81 0 81 C0 79.02 0 77.04 0 75 C-0.99 75 -1.98 75 -3 75 C-3 76.98 -3 78.96 -3 81 C-3.99 81 -4.98 81 -6 81 C-6 81.99 -6 82.98 -6 84 C-6.99 84 -7.98 84 -9 84 C-9 84.99 -9 85.98 -9 87 C-9.99 87 -10.98 87 -12 87 C-12 86.01 -12 85.02 -12 84 C-12.99 84 -13.98 84 -15 84 C-15 78.06 -15 72.12 -15 66 C-14.01 66 -13.02 66 -12 66 C-12 61.05 -12 56.1 -12 51 C-11.01 51 -10.02 51 -9 51 C-9 50.01 -9 49.02 -9 48 C-9.99 48 -10.98 48 -12 48 C-12 40.08 -12 32.16 -12 24 C-11.01 24 -10.02 24 -9 24 C-9 22.02 -9 20.04 -9 18 C-9.99 18 -10.98 18 -12 18 C-12 17.01 -12 16.02 -12 15 C-12.99 15 -13.98 15 -15 15 C-15 12.03 -15 9.06 -15 6 C-14.01 6 -13.02 6 -12 6 C-12 5.01 -12 4.02 -12 3 C-8.04 3 -4.08 3 0 3 C0 2.01 0 1.02 0 0 Z " fill="#000000" transform="translate(702,1233)"/>
<path d="M0 0 C2.97 0 5.94 0 9 0 C9 1.98 9 3.96 9 6 C10.98 6 12.96 6 15 6 C15 44.61 15 83.22 15 123 C15.99 123 16.98 123 18 123 C18 178.44 18 233.88 18 291 C18.99 291 19.98 291 21 291 C21 321.69 21 352.38 21 384 C21.99 384 22.98 384 24 384 C24 406.77 24 429.54 24 453 C24.99 453 25.98 453 27 453 C27 469.83 27 486.66 27 504 C27.99 504 28.98 504 30 504 C30 517.86 30 531.72 30 546 C30.99 546 31.98 546 33 546 C33 575.7 33 605.4 33 636 C33.99 636 34.98 636 36 636 C36 640.95 36 645.9 36 651 C34.02 651 32.04 651 30 651 C30 652.98 30 654.96 30 657 C29.01 657 28.02 657 27 657 C27 657.99 27 658.98 27 660 C26.01 660 25.02 660 24 660 C24 661.98 24 663.96 24 666 C22.02 666 20.04 666 18 666 C18 664.02 18 662.04 18 660 C18.99 660 19.98 660 21 660 C21 659.01 21 658.02 21 657 C21.99 657 22.98 657 24 657 C24 656.01 24 655.02 24 654 C24.99 654 25.98 654 27 654 C27 652.02 27 650.04 27 648 C27.99 648 28.98 648 30 648 C30 645.03 30 642.06 30 639 C29.01 639 28.02 639 27 639 C27 610.29 27 581.58 27 552 C26.01 552 25.02 552 24 552 C24 541.11 24 530.22 24 519 C23.01 519 22.02 519 21 519 C21 498.21 21 477.42 21 456 C20.01 456 19.02 456 18 456 C18 433.23 18 410.46 18 387 C17.01 387 16.02 387 15 387 C15 356.31 15 325.62 15 294 C14.01 294 13.02 294 12 294 C12 241.53 12 189.06 12 135 C11.01 135 10.02 135 9 135 C9 95.4 9 55.8 9 15 C8.01 15 7.02 15 6 15 C6 13.02 6 11.04 6 9 C5.01 9 4.02 9 3 9 C3 8.01 3 7.02 3 6 C2.01 6 1.02 6 0 6 C0 4.02 0 2.04 0 0 Z " fill="#000000" transform="translate(618,78)"/>
<path d="M0 0 C0.99 0 1.98 0 3 0 C3 0.99 3 1.98 3 3 C3.99 3 4.98 3 6 3 C6 3.99 6 4.98 6 6 C6.99 6 7.98 6 9 6 C9 7.98 9 9.96 9 12 C9.99 12 10.98 12 12 12 C12 12.99 12 13.98 12 15 C12.99 15 13.98 15 15 15 C15 15.99 15 16.98 15 18 C16.98 18 18.96 18 21 18 C21 18.99 21 19.98 21 21 C21.99 21 22.98 21 24 21 C24 21.99 24 22.98 24 24 C25.98 24 27.96 24 30 24 C30 24.99 30 25.98 30 27 C31.98 27 33.96 27 36 27 C36 26.01 36 25.02 36 24 C36.99 24 37.98 24 39 24 C39 26.97 39 29.94 39 33 C38.01 33 37.02 33 36 33 C36 33.99 36 34.98 36 36 C36.99 36 37.98 36 39 36 C39 46.89 39 57.78 39 69 C39.99 69 40.98 69 42 69 C42 64.05 42 59.1 42 54 C42.99 54 43.98 54 45 54 C45 47.07 45 40.14 45 33 C45.99 33 46.98 33 48 33 C48 36.96 48 40.92 48 45 C48.99 45 49.98 45 51 45 C51 52.92 51 60.84 51 69 C50.01 69 49.02 69 48 69 C48 69.99 48 70.98 48 72 C46.02 72 44.04 72 42 72 C42 73.98 42 75.96 42 78 C39.03 78 36.06 78 33 78 C33 78.99 33 79.98 33 81 C34.98 81 36.96 81 39 81 C39 81.99 39 82.98 39 84 C38.01 84 37.02 84 36 84 C36 84.99 36 85.98 36 87 C37.98 87 39.96 87 42 87 C42 88.98 42 90.96 42 93 C41.01 93 40.02 93 39 93 C39 92.01 39 91.02 39 90 C38.01 90 37.02 90 36 90 C36 91.98 36 93.96 36 96 C36.99 96 37.98 96 39 96 C39 96.99 39 97.98 39 99 C39.99 99 40.98 99 42 99 C42 99.99 42 100.98 42 102 C40.02 102 38.04 102 36 102 C36 101.01 36 100.02 36 99 C35.01 99 34.02 99 33 99 C33 98.01 33 97.02 33 96 C32.01 96 31.02 96 30 96 C30 95.01 30 94.02 30 93 C29.01 93 28.02 93 27 93 C27 91.02 27 89.04 27 87 C26.01 87 25.02 87 24 87 C24 86.01 24 85.02 24 84 C23.01 84 22.02 84 21 84 C21 82.02 21 80.04 21 78 C21.99 78 22.98 78 24 78 C24 76.02 24 74.04 24 72 C23.01 72 22.02 72 21 72 C21 71.01 21 70.02 21 69 C20.01 69 19.02 69 18 69 C18 68.01 18 67.02 18 66 C17.01 66 16.02 66 15 66 C15 65.01 15 64.02 15 63 C13.02 63 11.04 63 9 63 C9 62.01 9 61.02 9 60 C8.01 60 7.02 60 6 60 C6 59.01 6 58.02 6 57 C5.01 57 4.02 57 3 57 C3 56.01 3 55.02 3 54 C2.01 54 1.02 54 0 54 C0 53.01 0 52.02 0 51 C-0.99 51 -1.98 51 -3 51 C-3 40.11 -3 29.22 -3 18 C-2.01 18 -1.02 18 0 18 C0 12.06 0 6.12 0 0 Z " fill="#868686" transform="translate(633,1158)"/>
<path d="M0 0 C1.98 0 3.96 0 6 0 C6 0.99 6 1.98 6 3 C6.99 3 7.98 3 9 3 C9 2.01 9 1.02 9 0 C9.99 0 10.98 0 12 0 C12 2.97 12 5.94 12 9 C12.99 9 13.98 9 15 9 C15 10.98 15 12.96 15 15 C16.98 15 18.96 15 21 15 C21 14.01 21 13.02 21 12 C22.98 12 24.96 12 27 12 C27 11.01 27 10.02 27 9 C27.99 9 28.98 9 30 9 C30 8.01 30 7.02 30 6 C31.98 6 33.96 6 36 6 C36 5.01 36 4.02 36 3 C36.99 3 37.98 3 39 3 C39 4.98 39 6.96 39 9 C38.01 9 37.02 9 36 9 C36 9.99 36 10.98 36 12 C35.01 12 34.02 12 33 12 C33 12.99 33 13.98 33 15 C32.01 15 31.02 15 30 15 C30 16.98 30 18.96 30 21 C29.01 21 28.02 21 27 21 C27 21.99 27 22.98 27 24 C26.01 24 25.02 24 24 24 C24 25.98 24 27.96 24 30 C23.01 30 22.02 30 21 30 C21 30.99 21 31.98 21 33 C20.01 33 19.02 33 18 33 C18 33.99 18 34.98 18 36 C17.01 36 16.02 36 15 36 C15 36.99 15 37.98 15 39 C14.01 39 13.02 39 12 39 C12 39.99 12 40.98 12 42 C11.01 42 10.02 42 9 42 C9 42.99 9 43.98 9 45 C8.01 45 7.02 45 6 45 C6 45.99 6 46.98 6 48 C4.02 48 2.04 48 0 48 C0 48.99 0 49.98 0 51 C-0.99 51 -1.98 51 -3 51 C-3 51.99 -3 52.98 -3 54 C-5.97 54 -8.94 54 -12 54 C-12 54.99 -12 55.98 -12 57 C-12.99 57 -13.98 57 -15 57 C-15 57.99 -15 58.98 -15 60 C-15.99 60 -16.98 60 -18 60 C-18 59.01 -18 58.02 -18 57 C-18.99 57 -19.98 57 -21 57 C-21 57.99 -21 58.98 -21 60 C-21.99 60 -22.98 60 -24 60 C-24 60.99 -24 61.98 -24 63 C-24.99 63 -25.98 63 -27 63 C-27 63.99 -27 64.98 -27 66 C-27.99 66 -28.98 66 -30 66 C-30 66.99 -30 67.98 -30 69 C-30.99 69 -31.98 69 -33 69 C-33 69.99 -33 70.98 -33 72 C-33.99 72 -34.98 72 -36 72 C-36 72.99 -36 73.98 -36 75 C-36.99 75 -37.98 75 -39 75 C-39 75.99 -39 76.98 -39 78 C-39.99 78 -40.98 78 -42 78 C-42 78.99 -42 79.98 -42 81 C-42.99 81 -43.98 81 -45 81 C-45 71.1 -45 61.2 -45 51 C-43.02 51 -41.04 51 -39 51 C-39 50.01 -39 49.02 -39 48 C-38.01 48 -37.02 48 -36 48 C-36 46.02 -36 44.04 -36 42 C-34.02 42 -32.04 42 -30 42 C-30 40.02 -30 38.04 -30 36 C-29.01 36 -28.02 36 -27 36 C-27 35.01 -27 34.02 -27 33 C-26.01 33 -25.02 33 -24 33 C-24 32.01 -24 31.02 -24 30 C-23.01 30 -22.02 30 -21 30 C-21 29.01 -21 28.02 -21 27 C-20.01 27 -19.02 27 -18 27 C-18 26.01 -18 25.02 -18 24 C-17.01 24 -16.02 24 -15 24 C-15 22.02 -15 20.04 -15 18 C-14.01 18 -13.02 18 -12 18 C-12 17.01 -12 16.02 -12 15 C-11.01 15 -10.02 15 -9 15 C-9 13.02 -9 11.04 -9 9 C-7.02 9 -5.04 9 -3 9 C-3 7.02 -3 5.04 -3 3 C-2.01 3 -1.02 3 0 3 C0 2.01 0 1.02 0 0 Z " fill="#CCE9F2" transform="translate(657,720)"/>
<path d="M0 0 C0.99 0 1.98 0 3 0 C3 0.99 3 1.98 3 3 C3.99 3 4.98 3 6 3 C6 4.98 6 6.96 6 9 C6.99 9 7.98 9 9 9 C9 10.98 9 12.96 9 15 C9.99 15 10.98 15 12 15 C12 16.98 12 18.96 12 21 C12.99 21 13.98 21 15 21 C15 21.99 15 22.98 15 24 C15.99 24 16.98 24 18 24 C18 24.99 18 25.98 18 27 C18.99 27 19.98 27 21 27 C21 27.99 21 28.98 21 30 C21.99 30 22.98 30 24 30 C24 30.99 24 31.98 24 33 C24.99 33 25.98 33 27 33 C27 33.99 27 34.98 27 36 C27.99 36 28.98 36 30 36 C30 36.99 30 37.98 30 39 C31.98 39 33.96 39 36 39 C36 39.99 36 40.98 36 42 C36.99 42 37.98 42 39 42 C39 46.95 39 51.9 39 57 C37.02 57 35.04 57 33 57 C33 58.98 33 60.96 33 63 C32.01 63 31.02 63 30 63 C30 64.98 30 66.96 30 69 C29.01 69 28.02 69 27 69 C27 69.99 27 70.98 27 72 C25.02 72 23.04 72 21 72 C21 72.99 21 73.98 21 75 C17.04 75 13.08 75 9 75 C9 74.01 9 73.02 9 72 C7.02 72 5.04 72 3 72 C3 71.01 3 70.02 3 69 C1.02 69 -0.96 69 -3 69 C-3 68.01 -3 67.02 -3 66 C-4.98 66 -6.96 66 -9 66 C-9 65.01 -9 64.02 -9 63 C-10.98 63 -12.96 63 -15 63 C-15 62.01 -15 61.02 -15 60 C-16.98 60 -18.96 60 -21 60 C-21 59.01 -21 58.02 -21 57 C-21.99 57 -22.98 57 -24 57 C-24 56.01 -24 55.02 -24 54 C-23.01 54 -22.02 54 -21 54 C-21 53.01 -21 52.02 -21 51 C-18.03 51 -15.06 51 -12 51 C-12 50.01 -12 49.02 -12 48 C-10.02 48 -8.04 48 -6 48 C-6 47.01 -6 46.02 -6 45 C-5.01 45 -4.02 45 -3 45 C-3 41.04 -3 37.08 -3 33 C-2.01 33 -1.02 33 0 33 C0 22.11 0 11.22 0 0 Z " fill="#D3CA81" transform="translate(633,1224)"/>
<path d="M0 0 C0.99 0 1.98 0 3 0 C3 4.95 3 9.9 3 15 C2.01 15 1.02 15 0 15 C0 16.98 0 18.96 0 21 C-0.99 21 -1.98 21 -3 21 C-3 23.97 -3 26.94 -3 30 C-3.99 30 -4.98 30 -6 30 C-6 30.99 -6 31.98 -6 33 C-6.99 33 -7.98 33 -9 33 C-9 34.98 -9 36.96 -9 39 C-9.99 39 -10.98 39 -12 39 C-12 38.01 -12 37.02 -12 36 C-13.98 36 -15.96 36 -18 36 C-18 36.99 -18 37.98 -18 39 C-18.99 39 -19.98 39 -21 39 C-21 39.99 -21 40.98 -21 42 C-21.99 42 -22.98 42 -24 42 C-24 42.99 -24 43.98 -24 45 C-24.99 45 -25.98 45 -27 45 C-27 45.99 -27 46.98 -27 48 C-29.97 48 -32.94 48 -36 48 C-36 48.99 -36 49.98 -36 51 C-37.98 51 -39.96 51 -42 51 C-42 51.99 -42 52.98 -42 54 C-48.93 54 -55.86 54 -63 54 C-63 53.01 -63 52.02 -63 51 C-63.99 51 -64.98 51 -66 51 C-66 50.01 -66 49.02 -66 48 C-67.98 48 -69.96 48 -72 48 C-72 46.02 -72 44.04 -72 42 C-72.99 42 -73.98 42 -75 42 C-75 40.02 -75 38.04 -75 36 C-75.99 36 -76.98 36 -78 36 C-78 35.01 -78 34.02 -78 33 C-76.02 33 -74.04 33 -72 33 C-72 33.99 -72 34.98 -72 36 C-69.03 36 -66.06 36 -63 36 C-63 35.01 -63 34.02 -63 33 C-60.03 33 -57.06 33 -54 33 C-54 32.01 -54 31.02 -54 30 C-53.01 30 -52.02 30 -51 30 C-51 29.01 -51 28.02 -51 27 C-50.01 27 -49.02 27 -48 27 C-48 26.01 -48 25.02 -48 24 C-47.01 24 -46.02 24 -45 24 C-45 23.01 -45 22.02 -45 21 C-44.01 21 -43.02 21 -42 21 C-42 20.01 -42 19.02 -42 18 C-41.01 18 -40.02 18 -39 18 C-39 17.01 -39 16.02 -39 15 C-34.05 15 -29.1 15 -24 15 C-24 14.01 -24 13.02 -24 12 C-21.03 12 -18.06 12 -15 12 C-15 11.01 -15 10.02 -15 9 C-13.02 9 -11.04 9 -9 9 C-9 8.01 -9 7.02 -9 6 C-7.02 6 -5.04 6 -3 6 C-3 5.01 -3 4.02 -3 3 C-2.01 3 -1.02 3 0 3 C0 2.01 0 1.02 0 0 Z " fill="#CCEBF4" transform="translate(693,774)"/>
<path d="M0 0 C1.98 0 3.96 0 6 0 C6 3.96 6 7.92 6 12 C5.01 12 4.02 12 3 12 C3 14.97 3 17.94 3 21 C2.01 21 1.02 21 0 21 C0 22.98 0 24.96 0 27 C-0.99 27 -1.98 27 -3 27 C-3 28.98 -3 30.96 -3 33 C-3.99 33 -4.98 33 -6 33 C-6 35.97 -6 38.94 -6 42 C-6.99 42 -7.98 42 -9 42 C-9 43.98 -9 45.96 -9 48 C-9.99 48 -10.98 48 -12 48 C-12 49.98 -12 51.96 -12 54 C-12.99 54 -13.98 54 -15 54 C-15 54.99 -15 55.98 -15 57 C-15.99 57 -16.98 57 -18 57 C-18 58.98 -18 60.96 -18 63 C-18.99 63 -19.98 63 -21 63 C-21 64.98 -21 66.96 -21 69 C-21.99 69 -22.98 69 -24 69 C-24 69.99 -24 70.98 -24 72 C-24.99 72 -25.98 72 -27 72 C-27 73.98 -27 75.96 -27 78 C-27.99 78 -28.98 78 -30 78 C-30 78.99 -30 79.98 -30 81 C-30.99 81 -31.98 81 -33 81 C-33 81.99 -33 82.98 -33 84 C-33.99 84 -34.98 84 -36 84 C-36 84.99 -36 85.98 -36 87 C-36.99 87 -37.98 87 -39 87 C-39 87.99 -39 88.98 -39 90 C-39.99 90 -40.98 90 -42 90 C-42 90.99 -42 91.98 -42 93 C-42.99 93 -43.98 93 -45 93 C-45 93.99 -45 94.98 -45 96 C-45.99 96 -46.98 96 -48 96 C-48 96.99 -48 97.98 -48 99 C-48.99 99 -49.98 99 -51 99 C-51 99.99 -51 100.98 -51 102 C-51.99 102 -52.98 102 -54 102 C-54 102.99 -54 103.98 -54 105 C-54.99 105 -55.98 105 -57 105 C-57 105.99 -57 106.98 -57 108 C-58.98 108 -60.96 108 -63 108 C-63 108.99 -63 109.98 -63 111 C-63.99 111 -64.98 111 -66 111 C-66 111.99 -66 112.98 -66 114 C-66.99 114 -67.98 114 -69 114 C-69 114.99 -69 115.98 -69 117 C-69.99 117 -70.98 117 -72 117 C-72 117.99 -72 118.98 -72 120 C-73.98 120 -75.96 120 -78 120 C-78 120.99 -78 121.98 -78 123 C-81.96 123 -85.92 123 -90 123 C-90 123.99 -90 124.98 -90 126 C-94.95 126 -99.9 126 -105 126 C-105 126.99 -105 127.98 -105 129 C-111.93 129 -118.86 129 -126 129 C-126 128.01 -126 127.02 -126 126 C-127.98 126 -129.96 126 -132 126 C-132 125.01 -132 124.02 -132 123 C-132.99 123 -133.98 123 -135 123 C-135 121.02 -135 119.04 -135 117 C-132.03 117 -129.06 117 -126 117 C-126 117.99 -126 118.98 -126 120 C-120.06 120 -114.12 120 -108 120 C-108 119.01 -108 118.02 -108 117 C-103.05 117 -98.1 117 -93 117 C-93 116.01 -93 115.02 -93 114 C-89.04 114 -85.08 114 -81 114 C-81 113.01 -81 112.02 -81 111 C-79.02 111 -77.04 111 -75 111 C-75 110.01 -75 109.02 -75 108 C-74.01 108 -73.02 108 -72 108 C-72 107.01 -72 106.02 -72 105 C-71.01 105 -70.02 105 -69 105 C-69 104.01 -69 103.02 -69 102 C-68.01 102 -67.02 102 -66 102 C-66 101.01 -66 100.02 -66 99 C-64.02 99 -62.04 99 -60 99 C-60 98.01 -60 97.02 -60 96 C-59.01 96 -58.02 96 -57 96 C-57 95.01 -57 94.02 -57 93 C-56.01 93 -55.02 93 -54 93 C-54 92.01 -54 91.02 -54 90 C-53.01 90 -52.02 90 -51 90 C-51 89.01 -51 88.02 -51 87 C-50.01 87 -49.02 87 -48 87 C-48 86.01 -48 85.02 -48 84 C-47.01 84 -46.02 84 -45 84 C-45 83.01 -45 82.02 -45 81 C-44.01 81 -43.02 81 -42 81 C-42 80.01 -42 79.02 -42 78 C-41.01 78 -40.02 78 -39 78 C-39 77.01 -39 76.02 -39 75 C-38.01 75 -37.02 75 -36 75 C-36 74.01 -36 73.02 -36 72 C-35.01 72 -34.02 72 -33 72 C-33 70.02 -33 68.04 -33 66 C-32.01 66 -31.02 66 -30 66 C-30 65.01 -30 64.02 -30 63 C-29.01 63 -28.02 63 -27 63 C-27 61.02 -27 59.04 -27 57 C-26.01 57 -25.02 57 -24 57 C-24 55.02 -24 53.04 -24 51 C-23.01 51 -22.02 51 -21 51 C-21 50.01 -21 49.02 -21 48 C-20.01 48 -19.02 48 -18 48 C-18 46.02 -18 44.04 -18 42 C-17.01 42 -16.02 42 -15 42 C-15 40.02 -15 38.04 -15 36 C-14.01 36 -13.02 36 -12 36 C-12 33.03 -12 30.06 -12 27 C-11.01 27 -10.02 27 -9 27 C-9 25.02 -9 23.04 -9 21 C-8.01 21 -7.02 21 -6 21 C-6 19.02 -6 17.04 -6 15 C-5.01 15 -4.02 15 -3 15 C-3 12.03 -3 9.06 -3 6 C-2.01 6 -1.02 6 0 6 C0 4.02 0 2.04 0 0 Z " fill="#000000" transform="translate(891,1245)"/>
<path d="M0 0 C1.98 0 3.96 0 6 0 C6 0.99 6 1.98 6 3 C5.01 3 4.02 3 3 3 C3 4.98 3 6.96 3 9 C3.99 9 4.98 9 6 9 C6 9.99 6 10.98 6 12 C7.98 12 9.96 12 12 12 C12 11.01 12 10.02 12 9 C13.98 9 15.96 9 18 9 C18 9.99 18 10.98 18 12 C18.99 12 19.98 12 21 12 C21 12.99 21 13.98 21 15 C20.01 15 19.02 15 18 15 C18 15.99 18 16.98 18 18 C15.03 18 12.06 18 9 18 C9 18.99 9 19.98 9 21 C0.09 21 -8.82 21 -18 21 C-18 21.99 -18 22.98 -18 24 C-11.07 24 -4.14 24 3 24 C3 24.99 3 25.98 3 27 C1.02 27 -0.96 27 -3 27 C-3 27.99 -3 28.98 -3 30 C-5.97 30 -8.94 30 -12 30 C-12 30.99 -12 31.98 -12 33 C-11.01 33 -10.02 33 -9 33 C-9 33.99 -9 34.98 -9 36 C-9.99 36 -10.98 36 -12 36 C-12 36.99 -12 37.98 -12 39 C-17.94 39 -23.88 39 -30 39 C-30 37.02 -30 35.04 -30 33 C-32.97 33 -35.94 33 -39 33 C-39 34.98 -39 36.96 -39 39 C-39.99 39 -40.98 39 -42 39 C-42 41.97 -42 44.94 -42 48 C-43.98 48 -45.96 48 -48 48 C-48 43.05 -48 38.1 -48 33 C-50.97 33 -53.94 33 -57 33 C-57 33.99 -57 34.98 -57 36 C-58.98 36 -60.96 36 -63 36 C-63 36.99 -63 37.98 -63 39 C-63.99 39 -64.98 39 -66 39 C-66 39.99 -66 40.98 -66 42 C-66.99 42 -67.98 42 -69 42 C-69 40.02 -69 38.04 -69 36 C-68.01 36 -67.02 36 -66 36 C-66 35.01 -66 34.02 -66 33 C-65.01 33 -64.02 33 -63 33 C-63 32.01 -63 31.02 -63 30 C-62.01 30 -61.02 30 -60 30 C-60 28.02 -60 26.04 -60 24 C-59.01 24 -58.02 24 -57 24 C-57 23.01 -57 22.02 -57 21 C-56.01 21 -55.02 21 -54 21 C-54 20.01 -54 19.02 -54 18 C-53.01 18 -52.02 18 -51 18 C-51 16.02 -51 14.04 -51 12 C-50.01 12 -49.02 12 -48 12 C-48 9.03 -48 6.06 -48 3 C-47.01 3 -46.02 3 -45 3 C-45 3.99 -45 4.98 -45 6 C-43.02 6 -41.04 6 -39 6 C-39 6.99 -39 7.98 -39 9 C-37.02 9 -35.04 9 -33 9 C-33 9.99 -33 10.98 -33 12 C-32.01 12 -31.02 12 -30 12 C-30 12.99 -30 13.98 -30 15 C-28.02 15 -26.04 15 -24 15 C-24 14.01 -24 13.02 -24 12 C-20.04 12 -16.08 12 -12 12 C-12 11.01 -12 10.02 -12 9 C-10.02 9 -8.04 9 -6 9 C-6 8.01 -6 7.02 -6 6 C-5.01 6 -4.02 6 -3 6 C-3 5.01 -3 4.02 -3 3 C-2.01 3 -1.02 3 0 3 C0 2.01 0 1.02 0 0 Z " fill="#CCEBF4" transform="translate(657,834)"/>
<path d="M0 0 C1.98 0 3.96 0 6 0 C6 3.96 6 7.92 6 12 C5.01 12 4.02 12 3 12 C3 20.91 3 29.82 3 39 C2.01 39 1.02 39 0 39 C0 41.97 0 44.94 0 48 C-0.99 48 -1.98 48 -3 48 C-3 50.97 -3 53.94 -3 57 C-3.99 57 -4.98 57 -6 57 C-6 58.98 -6 60.96 -6 63 C-5.01 63 -4.02 63 -3 63 C-3 62.01 -3 61.02 -3 60 C-2.01 60 -1.02 60 0 60 C0 59.01 0 58.02 0 57 C0.99 57 1.98 57 3 57 C3 56.01 3 55.02 3 54 C5.97 54 8.94 54 12 54 C12 56.97 12 59.94 12 63 C11.01 63 10.02 63 9 63 C9 64.98 9 66.96 9 69 C8.01 69 7.02 69 6 69 C6 74.94 6 80.88 6 87 C5.01 87 4.02 87 3 87 C3 85.02 3 83.04 3 81 C2.01 81 1.02 81 0 81 C0 79.02 0 77.04 0 75 C-0.99 75 -1.98 75 -3 75 C-3 76.98 -3 78.96 -3 81 C-3.99 81 -4.98 81 -6 81 C-6 81.99 -6 82.98 -6 84 C-6.99 84 -7.98 84 -9 84 C-9 84.99 -9 85.98 -9 87 C-9.99 87 -10.98 87 -12 87 C-12 86.01 -12 85.02 -12 84 C-12.99 84 -13.98 84 -15 84 C-15 78.06 -15 72.12 -15 66 C-14.01 66 -13.02 66 -12 66 C-12 61.05 -12 56.1 -12 51 C-11.01 51 -10.02 51 -9 51 C-9 50.01 -9 49.02 -9 48 C-9.99 48 -10.98 48 -12 48 C-12 40.08 -12 32.16 -12 24 C-11.01 24 -10.02 24 -9 24 C-9 22.02 -9 20.04 -9 18 C-9.99 18 -10.98 18 -12 18 C-12 17.01 -12 16.02 -12 15 C-12.99 15 -13.98 15 -15 15 C-15 12.03 -15 9.06 -15 6 C-14.01 6 -13.02 6 -12 6 C-12 5.01 -12 4.02 -12 3 C-8.04 3 -4.08 3 0 3 C0 2.01 0 1.02 0 0 Z " fill="#020303" transform="translate(702,1233)"/>
<path d="M0 0 C0.99 0 1.98 0 3 0 C3 1.98 3 3.96 3 6 C2.01 6 1.02 6 0 6 C0 6.99 0 7.98 0 9 C-0.99 9 -1.98 9 -3 9 C-3 9.99 -3 10.98 -3 12 C-3.99 12 -4.98 12 -6 12 C-6 13.98 -6 15.96 -6 18 C-6.99 18 -7.98 18 -9 18 C-9 18.99 -9 19.98 -9 21 C-9.99 21 -10.98 21 -12 21 C-12 22.98 -12 24.96 -12 27 C-12.99 27 -13.98 27 -15 27 C-15 27.99 -15 28.98 -15 30 C-15.99 30 -16.98 30 -18 30 C-18 30.99 -18 31.98 -18 33 C-18.99 33 -19.98 33 -21 33 C-21 33.99 -21 34.98 -21 36 C-21.99 36 -22.98 36 -24 36 C-24 36.99 -24 37.98 -24 39 C-24.99 39 -25.98 39 -27 39 C-27 39.99 -27 40.98 -27 42 C-27.99 42 -28.98 42 -30 42 C-30 42.99 -30 43.98 -30 45 C-31.98 45 -33.96 45 -36 45 C-36 45.99 -36 46.98 -36 48 C-36.99 48 -37.98 48 -39 48 C-39 48.99 -39 49.98 -39 51 C-41.97 51 -44.94 51 -48 51 C-48 51.99 -48 52.98 -48 54 C-48.99 54 -49.98 54 -51 54 C-51 54.99 -51 55.98 -51 57 C-51.99 57 -52.98 57 -54 57 C-54 56.01 -54 55.02 -54 54 C-54.99 54 -55.98 54 -57 54 C-57 54.99 -57 55.98 -57 57 C-57.99 57 -58.98 57 -60 57 C-60 57.99 -60 58.98 -60 60 C-60.99 60 -61.98 60 -63 60 C-63 60.99 -63 61.98 -63 63 C-63.99 63 -64.98 63 -66 63 C-66 63.99 -66 64.98 -66 66 C-66.99 66 -67.98 66 -69 66 C-69 66.99 -69 67.98 -69 69 C-69.99 69 -70.98 69 -72 69 C-72 69.99 -72 70.98 -72 72 C-72.99 72 -73.98 72 -75 72 C-75 72.99 -75 73.98 -75 75 C-75.99 75 -76.98 75 -78 75 C-78 75.99 -78 76.98 -78 78 C-78.99 78 -79.98 78 -81 78 C-81 70.08 -81 62.16 -81 54 C-77.04 54 -73.08 54 -69 54 C-69 53.01 -69 52.02 -69 51 C-68.01 51 -67.02 51 -66 51 C-66 50.01 -66 49.02 -66 48 C-64.02 48 -62.04 48 -60 48 C-60 47.01 -60 46.02 -60 45 C-59.01 45 -58.02 45 -57 45 C-57 44.01 -57 43.02 -57 42 C-55.02 42 -53.04 42 -51 42 C-51 41.01 -51 40.02 -51 39 C-47.04 39 -43.08 39 -39 39 C-39 37.02 -39 35.04 -39 33 C-38.01 33 -37.02 33 -36 33 C-36 32.01 -36 31.02 -36 30 C-35.01 30 -34.02 30 -33 30 C-33 29.01 -33 28.02 -33 27 C-32.01 27 -31.02 27 -30 27 C-30 25.02 -30 23.04 -30 21 C-29.01 21 -28.02 21 -27 21 C-27 22.98 -27 24.96 -27 27 C-26.01 27 -25.02 27 -24 27 C-24 26.01 -24 25.02 -24 24 C-23.01 24 -22.02 24 -21 24 C-21 23.01 -21 22.02 -21 21 C-20.01 21 -19.02 21 -18 21 C-18 20.01 -18 19.02 -18 18 C-17.01 18 -16.02 18 -15 18 C-15 17.01 -15 16.02 -15 15 C-14.01 15 -13.02 15 -12 15 C-12 14.01 -12 13.02 -12 12 C-11.01 12 -10.02 12 -9 12 C-9 10.02 -9 8.04 -9 6 C-8.01 6 -7.02 6 -6 6 C-6 5.01 -6 4.02 -6 3 C-4.02 3 -2.04 3 0 3 C0 2.01 0 1.02 0 0 Z " fill="#86ABB6" transform="translate(693,723)"/>
<path d="M0 0 C0.99 0 1.98 0 3 0 C3 2.97 3 5.94 3 9 C3.99 9 4.98 9 6 9 C6 11.97 6 14.94 6 18 C6.99 18 7.98 18 9 18 C9 20.97 9 23.94 9 27 C9.99 27 10.98 27 12 27 C12 28.98 12 30.96 12 33 C12.99 33 13.98 33 15 33 C15 33.99 15 34.98 15 36 C15.99 36 16.98 36 18 36 C18 36.99 18 37.98 18 39 C18.99 39 19.98 39 21 39 C21 41.97 21 44.94 21 48 C21.99 48 22.98 48 24 48 C24 50.97 24 53.94 24 57 C24.99 57 25.98 57 27 57 C27 57.99 27 58.98 27 60 C27.99 60 28.98 60 30 60 C30 60.99 30 61.98 30 63 C30.99 63 31.98 63 33 63 C33 64.98 33 66.96 33 69 C33.99 69 34.98 69 36 69 C36 69.99 36 70.98 36 72 C34.02 72 32.04 72 30 72 C30 72.99 30 73.98 30 75 C29.01 75 28.02 75 27 75 C27 75.99 27 76.98 27 78 C26.01 78 25.02 78 24 78 C24 78.99 24 79.98 24 81 C23.01 81 22.02 81 21 81 C21 83.97 21 86.94 21 90 C20.01 90 19.02 90 18 90 C18 91.98 18 93.96 18 96 C17.01 96 16.02 96 15 96 C15 86.1 15 76.2 15 66 C15.99 66 16.98 66 18 66 C18 64.02 18 62.04 18 60 C18.99 60 19.98 60 21 60 C21 57.03 21 54.06 21 51 C18.03 51 15.06 51 12 51 C12 51.99 12 52.98 12 54 C10.02 54 8.04 54 6 54 C6 55.98 6 57.96 6 60 C5.01 60 4.02 60 3 60 C3 56.04 3 52.08 3 48 C3.99 48 4.98 48 6 48 C6 46.02 6 44.04 6 42 C6.99 42 7.98 42 9 42 C9 39.03 9 36.06 9 33 C6.03 33 3.06 33 0 33 C0 33.99 0 34.98 0 36 C-0.99 36 -1.98 36 -3 36 C-3 36.99 -3 37.98 -3 39 C-3.99 39 -4.98 39 -6 39 C-6 39.99 -6 40.98 -6 42 C-6.99 42 -7.98 42 -9 42 C-9 40.02 -9 38.04 -9 36 C-8.01 36 -7.02 36 -6 36 C-6 33.03 -6 30.06 -6 27 C-5.01 27 -4.02 27 -3 27 C-3 24.03 -3 21.06 -3 18 C-2.01 18 -1.02 18 0 18 C0 12.06 0 6.12 0 0 Z " fill="#CCEBF4" transform="translate(705,1254)"/>
<path d="M0 0 C1.98 0 3.96 0 6 0 C6 2.97 6 5.94 6 9 C6.99 9 7.98 9 9 9 C9 9.99 9 10.98 9 12 C9.99 12 10.98 12 12 12 C12 12.99 12 13.98 12 15 C12.99 15 13.98 15 15 15 C15 15.99 15 16.98 15 18 C16.98 18 18.96 18 21 18 C21 18.99 21 19.98 21 21 C23.97 21 26.94 21 30 21 C30 21.99 30 22.98 30 24 C29.01 24 28.02 24 27 24 C27 24.99 27 25.98 27 27 C26.01 27 25.02 27 24 27 C24 27.99 24 28.98 24 30 C23.01 30 22.02 30 21 30 C21 29.01 21 28.02 21 27 C19.02 27 17.04 27 15 27 C15 30.96 15 34.92 15 39 C15.99 39 16.98 39 18 39 C18 40.98 18 42.96 18 45 C18.99 45 19.98 45 21 45 C21 46.98 21 48.96 21 51 C21.99 51 22.98 51 24 51 C24 51.99 24 52.98 24 54 C24.99 54 25.98 54 27 54 C27 54.99 27 55.98 27 57 C28.98 57 30.96 57 33 57 C33 57.99 33 58.98 33 60 C28.05 60 23.1 60 18 60 C18 59.01 18 58.02 18 57 C16.02 57 14.04 57 12 57 C12 56.01 12 55.02 12 54 C11.01 54 10.02 54 9 54 C9 53.01 9 52.02 9 51 C8.01 51 7.02 51 6 51 C6 49.02 6 47.04 6 45 C5.01 45 4.02 45 3 45 C3 43.02 3 41.04 3 39 C2.01 39 1.02 39 0 39 C0 36.03 0 33.06 0 30 C-0.99 30 -1.98 30 -3 30 C-3 22.08 -3 14.16 -3 6 C-2.01 6 -1.02 6 0 6 C0 4.02 0 2.04 0 0 Z " fill="#90BAC6" transform="translate(969,1059)"/>
<path d="M0 0 C0.99 0 1.98 0 3 0 C3 5.94 3 11.88 3 18 C2.01 18 1.02 18 0 18 C0 18.99 0 19.98 0 21 C-0.99 21 -1.98 21 -3 21 C-3 22.98 -3 24.96 -3 27 C-9.93 27 -16.86 27 -24 27 C-24 27.99 -24 28.98 -24 30 C-25.98 30 -27.96 30 -30 30 C-30 32.97 -30 35.94 -30 39 C-30.99 39 -31.98 39 -33 39 C-33 39.99 -33 40.98 -33 42 C-33.99 42 -34.98 42 -36 42 C-36 38.04 -36 34.08 -36 30 C-36.99 30 -37.98 30 -39 30 C-39 29.01 -39 28.02 -39 27 C-38.01 27 -37.02 27 -36 27 C-36 21.06 -36 15.12 -36 9 C-32.04 9 -28.08 9 -24 9 C-24 9.99 -24 10.98 -24 12 C-23.01 12 -22.02 12 -21 12 C-21 11.01 -21 10.02 -21 9 C-18.03 9 -15.06 9 -12 9 C-12 8.01 -12 7.02 -12 6 C-10.02 6 -8.04 6 -6 6 C-6 5.01 -6 4.02 -6 3 C-4.02 3 -2.04 3 0 3 C0 2.01 0 1.02 0 0 Z " fill="#878787" transform="translate(660,867)"/>
<path d="M0 0 C0.99 0 1.98 0 3 0 C3 4.95 3 9.9 3 15 C2.01 15 1.02 15 0 15 C0 16.98 0 18.96 0 21 C-0.99 21 -1.98 21 -3 21 C-3 23.97 -3 26.94 -3 30 C-3.99 30 -4.98 30 -6 30 C-6 30.99 -6 31.98 -6 33 C-6.99 33 -7.98 33 -9 33 C-9 34.98 -9 36.96 -9 39 C-9.99 39 -10.98 39 -12 39 C-12 38.01 -12 37.02 -12 36 C-13.98 36 -15.96 36 -18 36 C-18 36.99 -18 37.98 -18 39 C-18.99 39 -19.98 39 -21 39 C-21 39.99 -21 40.98 -21 42 C-21.99 42 -22.98 42 -24 42 C-24 42.99 -24 43.98 -24 45 C-24.99 45 -25.98 45 -27 45 C-27 45.99 -27 46.98 -27 48 C-29.97 48 -32.94 48 -36 48 C-36 48.99 -36 49.98 -36 51 C-37.98 51 -39.96 51 -42 51 C-42 51.99 -42 52.98 -42 54 C-47.94 54 -53.88 54 -60 54 C-60 52.02 -60 50.04 -60 48 C-56.04 48 -52.08 48 -48 48 C-48 47.01 -48 46.02 -48 45 C-46.02 45 -44.04 45 -42 45 C-42 44.01 -42 43.02 -42 42 C-41.01 42 -40.02 42 -39 42 C-39 41.01 -39 40.02 -39 39 C-37.02 39 -35.04 39 -33 39 C-33 38.01 -33 37.02 -33 36 C-31.02 36 -29.04 36 -27 36 C-27 35.01 -27 34.02 -27 33 C-26.01 33 -25.02 33 -24 33 C-24 32.01 -24 31.02 -24 30 C-23.01 30 -22.02 30 -21 30 C-21 29.01 -21 28.02 -21 27 C-20.01 27 -19.02 27 -18 27 C-18 26.01 -18 25.02 -18 24 C-17.01 24 -16.02 24 -15 24 C-15 23.01 -15 22.02 -15 21 C-14.01 21 -13.02 21 -12 21 C-12 19.02 -12 17.04 -12 15 C-11.01 15 -10.02 15 -9 15 C-9 14.01 -9 13.02 -9 12 C-8.01 12 -7.02 12 -6 12 C-6 10.02 -6 8.04 -6 6 C-5.01 6 -4.02 6 -3 6 C-3 5.01 -3 4.02 -3 3 C-2.01 3 -1.02 3 0 3 C0 2.01 0 1.02 0 0 Z " fill="#90BAC6" transform="translate(693,774)"/>
<path d="M0 0 C0.99 0 1.98 0 3 0 C3 1.98 3 3.96 3 6 C3.99 6 4.98 6 6 6 C6 6.99 6 7.98 6 9 C6.99 9 7.98 9 9 9 C9 10.98 9 12.96 9 15 C9.99 15 10.98 15 12 15 C12 15.99 12 16.98 12 18 C12.99 18 13.98 18 15 18 C15 19.98 15 21.96 15 24 C14.01 24 13.02 24 12 24 C12 25.98 12 27.96 12 30 C11.01 30 10.02 30 9 30 C9 31.98 9 33.96 9 36 C7.02 36 5.04 36 3 36 C3 36.99 3 37.98 3 39 C1.02 39 -0.96 39 -3 39 C-3 38.01 -3 37.02 -3 36 C-4.98 36 -6.96 36 -9 36 C-9 35.01 -9 34.02 -9 33 C-10.98 33 -12.96 33 -15 33 C-15 32.01 -15 31.02 -15 30 C-16.98 30 -18.96 30 -21 30 C-21 29.01 -21 28.02 -21 27 C-21.99 27 -22.98 27 -24 27 C-24 26.01 -24 25.02 -24 24 C-23.01 24 -22.02 24 -21 24 C-21 23.01 -21 22.02 -21 21 C-18.03 21 -15.06 21 -12 21 C-12 20.01 -12 19.02 -12 18 C-10.02 18 -8.04 18 -6 18 C-6 17.01 -6 16.02 -6 15 C-5.01 15 -4.02 15 -3 15 C-3 11.04 -3 7.08 -3 3 C-2.01 3 -1.02 3 0 3 C0 2.01 0 1.02 0 0 Z " fill="#E5DEA4" transform="translate(633,1254)"/>
<path d="M0 0 C2.97 0 5.94 0 9 0 C9 0.99 9 1.98 9 3 C8.01 3 7.02 3 6 3 C6 3.99 6 4.98 6 6 C5.01 6 4.02 6 3 6 C3 6.99 3 7.98 3 9 C2.01 9 1.02 9 0 9 C0 9.99 0 10.98 0 12 C0.99 12 1.98 12 3 12 C3 12.99 3 13.98 3 15 C2.01 15 1.02 15 0 15 C0 15.99 0 16.98 0 18 C-0.99 18 -1.98 18 -3 18 C-3 17.01 -3 16.02 -3 15 C-3.99 15 -4.98 15 -6 15 C-6 15.99 -6 16.98 -6 18 C-6.99 18 -7.98 18 -9 18 C-9 18.99 -9 19.98 -9 21 C-9.99 21 -10.98 21 -12 21 C-12 21.99 -12 22.98 -12 24 C-12.99 24 -13.98 24 -15 24 C-15 24.99 -15 25.98 -15 27 C-15.99 27 -16.98 27 -18 27 C-18 27.99 -18 28.98 -18 30 C-18.99 30 -19.98 30 -21 30 C-21 30.99 -21 31.98 -21 33 C-21.99 33 -22.98 33 -24 33 C-24 33.99 -24 34.98 -24 36 C-24.99 36 -25.98 36 -27 36 C-27 36.99 -27 37.98 -27 39 C-27.99 39 -28.98 39 -30 39 C-30 31.08 -30 23.16 -30 15 C-26.04 15 -22.08 15 -18 15 C-18 14.01 -18 13.02 -18 12 C-17.01 12 -16.02 12 -15 12 C-15 11.01 -15 10.02 -15 9 C-13.02 9 -11.04 9 -9 9 C-9 8.01 -9 7.02 -9 6 C-8.01 6 -7.02 6 -6 6 C-6 5.01 -6 4.02 -6 3 C-4.02 3 -2.04 3 0 3 C0 2.01 0 1.02 0 0 Z " fill="#8EB7C3" transform="translate(642,762)"/>
<path d="M0 0 C0.99 0 1.98 0 3 0 C3 1.98 3 3.96 3 6 C3.99 6 4.98 6 6 6 C6 6.99 6 7.98 6 9 C6.99 9 7.98 9 9 9 C9 9.99 9 10.98 9 12 C9.99 12 10.98 12 12 12 C12 12.99 12 13.98 12 15 C12.99 15 13.98 15 15 15 C15 20.94 15 26.88 15 33 C16.98 33 18.96 33 21 33 C21 33.99 21 34.98 21 36 C19.02 36 17.04 36 15 36 C15 37.98 15 39.96 15 42 C15.99 42 16.98 42 18 42 C18 42.99 18 43.98 18 45 C16.02 45 14.04 45 12 45 C12 44.01 12 43.02 12 42 C9.03 42 6.06 42 3 42 C3 38.04 3 34.08 3 30 C2.01 30 1.02 30 0 30 C0 20.1 0 10.2 0 0 Z " fill="#91BBC7" transform="translate(741,1326)"/>
<path d="M0 0 C5.94 0 11.88 0 18 0 C18 1.98 18 3.96 18 6 C24.93 6 31.86 6 39 6 C39 6.99 39 7.98 39 9 C37.02 9 35.04 9 33 9 C33 9.99 33 10.98 33 12 C30.03 12 27.06 12 24 12 C24 12.99 24 13.98 24 15 C24.99 15 25.98 15 27 15 C27 15.99 27 16.98 27 18 C26.01 18 25.02 18 24 18 C24 18.99 24 19.98 24 21 C18.06 21 12.12 21 6 21 C6 18.03 6 15.06 6 12 C4.02 12 2.04 12 0 12 C0 8.04 0 4.08 0 0 Z " fill="#90BAC6" transform="translate(621,852)"/>
<path d="M0 0 C1.98 0 3.96 0 6 0 C6 0.99 6 1.98 6 3 C5.01 3 4.02 3 3 3 C3 4.98 3 6.96 3 9 C3.99 9 4.98 9 6 9 C6 9.99 6 10.98 6 12 C7.98 12 9.96 12 12 12 C12 11.01 12 10.02 12 9 C13.98 9 15.96 9 18 9 C18 9.99 18 10.98 18 12 C18.99 12 19.98 12 21 12 C21 12.99 21 13.98 21 15 C20.01 15 19.02 15 18 15 C18 15.99 18 16.98 18 18 C15.03 18 12.06 18 9 18 C9 18.99 9 19.98 9 21 C0.09 21 -8.82 21 -18 21 C-18 20.01 -18 19.02 -18 18 C-16.02 18 -14.04 18 -12 18 C-12 15.03 -12 12.06 -12 9 C-10.02 9 -8.04 9 -6 9 C-6 8.01 -6 7.02 -6 6 C-5.01 6 -4.02 6 -3 6 C-3 5.01 -3 4.02 -3 3 C-2.01 3 -1.02 3 0 3 C0 2.01 0 1.02 0 0 Z " fill="#CCEBF4" transform="translate(657,834)"/>
<path d="M0 0 C1.98 0 3.96 0 6 0 C6 0.99 6 1.98 6 3 C7.98 3 9.96 3 12 3 C12 3.99 12 4.98 12 6 C12.99 6 13.98 6 15 6 C15 6.99 15 7.98 15 9 C15.99 9 16.98 9 18 9 C18 11.97 18 14.94 18 18 C17.01 18 16.02 18 15 18 C15 20.97 15 23.94 15 27 C13.02 27 11.04 27 9 27 C9 22.05 9 17.1 9 12 C6.03 12 3.06 12 0 12 C0 12.99 0 13.98 0 15 C-1.98 15 -3.96 15 -6 15 C-6 15.99 -6 16.98 -6 18 C-6.99 18 -7.98 18 -9 18 C-9 18.99 -9 19.98 -9 21 C-9.99 21 -10.98 21 -12 21 C-12 19.02 -12 17.04 -12 15 C-11.01 15 -10.02 15 -9 15 C-9 14.01 -9 13.02 -9 12 C-8.01 12 -7.02 12 -6 12 C-6 11.01 -6 10.02 -6 9 C-5.01 9 -4.02 9 -3 9 C-3 7.02 -3 5.04 -3 3 C-2.01 3 -1.02 3 0 3 C0 2.01 0 1.02 0 0 Z " fill="#84ABB6" transform="translate(600,855)"/>
<path d="M0 0 C0.99 0 1.98 0 3 0 C3 2.97 3 5.94 3 9 C3.99 9 4.98 9 6 9 C6 29.79 6 50.58 6 72 C5.01 72 4.02 72 3 72 C3 52.2 3 32.4 3 12 C0.03 12 -2.94 12 -6 12 C-6 10.02 -6 8.04 -6 6 C-5.01 6 -4.02 6 -3 6 C-3 5.01 -3 4.02 -3 3 C-2.01 3 -1.02 3 0 3 C0 2.01 0 1.02 0 0 Z " fill="#878787" transform="translate(666,993)"/>
<path d="M0 0 C0.99 0 1.98 0 3 0 C3 0.99 3 1.98 3 3 C3.99 3 4.98 3 6 3 C6 2.01 6 1.02 6 0 C7.98 0 9.96 0 12 0 C12 0.99 12 1.98 12 3 C13.98 3 15.96 3 18 3 C18 3.99 18 4.98 18 6 C17.01 6 16.02 6 15 6 C15 6.99 15 7.98 15 9 C16.98 9 18.96 9 21 9 C21 10.98 21 12.96 21 15 C20.01 15 19.02 15 18 15 C18 14.01 18 13.02 18 12 C17.01 12 16.02 12 15 12 C15 13.98 15 15.96 15 18 C15.99 18 16.98 18 18 18 C18 18.99 18 19.98 18 21 C18.99 21 19.98 21 21 21 C21 21.99 21 22.98 21 24 C19.02 24 17.04 24 15 24 C15 23.01 15 22.02 15 21 C14.01 21 13.02 21 12 21 C12 20.01 12 19.02 12 18 C11.01 18 10.02 18 9 18 C9 17.01 9 16.02 9 15 C8.01 15 7.02 15 6 15 C6 13.02 6 11.04 6 9 C5.01 9 4.02 9 3 9 C3 8.01 3 7.02 3 6 C2.01 6 1.02 6 0 6 C0 4.02 0 2.04 0 0 Z " fill="#85ACB7" transform="translate(654,1236)"/>
<path d="M0 0 C1.98 0 3.96 0 6 0 C6 0.99 6 1.98 6 3 C6.99 3 7.98 3 9 3 C9 4.98 9 6.96 9 9 C9.99 9 10.98 9 12 9 C12 10.98 12 12.96 12 15 C12.99 15 13.98 15 15 15 C15 16.98 15 18.96 15 21 C15.99 21 16.98 21 18 21 C18 21.99 18 22.98 18 24 C18.99 24 19.98 24 21 24 C21 24.99 21 25.98 21 27 C22.98 27 24.96 27 27 27 C27 27.99 27 28.98 27 30 C22.05 30 17.1 30 12 30 C12 27.03 12 24.06 12 21 C11.01 21 10.02 21 9 21 C9 20.01 9 19.02 9 18 C8.01 18 7.02 18 6 18 C6 17.01 6 16.02 6 15 C5.01 15 4.02 15 3 15 C3 11.04 3 7.08 3 3 C2.01 3 1.02 3 0 3 C0 2.01 0 1.02 0 0 Z " fill="#CCEBF4" transform="translate(975,1089)"/>
<path d="M0 0 C0.99 0 1.98 0 3 0 C3 1.98 3 3.96 3 6 C2.01 6 1.02 6 0 6 C0 8.97 0 11.94 0 15 C-0.99 15 -1.98 15 -3 15 C-3 17.97 -3 20.94 -3 24 C-3.99 24 -4.98 24 -6 24 C-6 24.99 -6 25.98 -6 27 C-6.99 27 -7.98 27 -9 27 C-9 26.01 -9 25.02 -9 24 C-9.99 24 -10.98 24 -12 24 C-12 23.01 -12 22.02 -12 21 C-12.99 21 -13.98 21 -15 21 C-15 19.02 -15 17.04 -15 15 C-14.01 15 -13.02 15 -12 15 C-12 14.01 -12 13.02 -12 12 C-11.01 12 -10.02 12 -9 12 C-9 11.01 -9 10.02 -9 9 C-8.01 9 -7.02 9 -6 9 C-6 8.01 -6 7.02 -6 6 C-5.01 6 -4.02 6 -3 6 C-3 5.01 -3 4.02 -3 3 C-2.01 3 -1.02 3 0 3 C0 2.01 0 1.02 0 0 Z " fill="#878787" transform="translate(681,885)"/>
<path d="M0 0 C0.99 0 1.98 0 3 0 C3 2.97 3 5.94 3 9 C2.01 9 1.02 9 0 9 C0 9.99 0 10.98 0 12 C-0.99 12 -1.98 12 -3 12 C-3 12.99 -3 13.98 -3 15 C-3.99 15 -4.98 15 -6 15 C-6 15.99 -6 16.98 -6 18 C-6.99 18 -7.98 18 -9 18 C-9 18.99 -9 19.98 -9 21 C-10.98 21 -12.96 21 -15 21 C-15 21.99 -15 22.98 -15 24 C-18.96 24 -22.92 24 -27 24 C-27 23.01 -27 22.02 -27 21 C-25.02 21 -23.04 21 -21 21 C-21 20.01 -21 19.02 -21 18 C-20.01 18 -19.02 18 -18 18 C-18 17.01 -18 16.02 -18 15 C-16.02 15 -14.04 15 -12 15 C-12 14.01 -12 13.02 -12 12 C-11.01 12 -10.02 12 -9 12 C-9 11.01 -9 10.02 -9 9 C-8.01 9 -7.02 9 -6 9 C-6 8.01 -6 7.02 -6 6 C-5.01 6 -4.02 6 -3 6 C-3 5.01 -3 4.02 -3 3 C-2.01 3 -1.02 3 0 3 C0 2.01 0 1.02 0 0 Z " fill="#90BAC6" transform="translate(648,780)"/>
<path d="M0 0 C0.99 0 1.98 0 3 0 C3 3.96 3 7.92 3 12 C3.99 12 4.98 12 6 12 C6 14.97 6 17.94 6 21 C5.01 21 4.02 21 3 21 C3 23.97 3 26.94 3 30 C2.01 30 1.02 30 0 30 C0 31.98 0 33.96 0 36 C-0.99 36 -1.98 36 -3 36 C-3 26.1 -3 16.2 -3 6 C-2.01 6 -1.02 6 0 6 C0 4.02 0 2.04 0 0 Z " fill="#90BAC6" transform="translate(723,1314)"/>
<path d="M0 0 C0.99 0 1.98 0 3 0 C3 1.98 3 3.96 3 6 C1.02 6 -0.96 6 -3 6 C-3 11.94 -3 17.88 -3 24 C-3.99 24 -4.98 24 -6 24 C-6 19.05 -6 14.1 -6 9 C-8.97 9 -11.94 9 -15 9 C-15 16.92 -15 24.84 -15 33 C-15.99 33 -16.98 33 -18 33 C-18 24.09 -18 15.18 -18 6 C-14.04 6 -10.08 6 -6 6 C-6 5.01 -6 4.02 -6 3 C-4.02 3 -2.04 3 0 3 C0 2.01 0 1.02 0 0 Z " fill="#000000" transform="translate(669,1182)"/>
<path d="M0 0 C0.99 0 1.98 0 3 0 C3 1.98 3 3.96 3 6 C4.98 6 6.96 6 9 6 C9 6.99 9 7.98 9 9 C9.99 9 10.98 9 12 9 C12 9.99 12 10.98 12 12 C14.97 12 17.94 12 21 12 C21 12.99 21 13.98 21 15 C20.01 15 19.02 15 18 15 C18 15.99 18 16.98 18 18 C16.02 18 14.04 18 12 18 C12 17.01 12 16.02 12 15 C11.01 15 10.02 15 9 15 C9 16.98 9 18.96 9 21 C8.01 21 7.02 21 6 21 C6 20.01 6 19.02 6 18 C4.02 18 2.04 18 0 18 C0 12.06 0 6.12 0 0 Z " fill="#90BAC6" transform="translate(615,819)"/>
<path d="M0 0 C0.99 0 1.98 0 3 0 C3 11.88 3 23.76 3 36 C0.03 36 -2.94 36 -6 36 C-6 32.04 -6 28.08 -6 24 C-5.01 24 -4.02 24 -3 24 C-3 23.01 -3 22.02 -3 21 C-2.01 21 -1.02 21 0 21 C0 14.07 0 7.14 0 0 Z " fill="#92BCC8" transform="translate(711,1326)"/>
<path d="M0 0 C1.98 0 3.96 0 6 0 C6 0.99 6 1.98 6 3 C7.98 3 9.96 3 12 3 C12 3.99 12 4.98 12 6 C14.97 6 17.94 6 21 6 C21 6.99 21 7.98 21 9 C19.02 9 17.04 9 15 9 C15 9.99 15 10.98 15 12 C13.02 12 11.04 12 9 12 C9 12.99 9 13.98 9 15 C11.97 15 14.94 15 18 15 C18 15.99 18 16.98 18 18 C13.05 18 8.1 18 3 18 C3 17.01 3 16.02 3 15 C3.99 15 4.98 15 6 15 C6 13.02 6 11.04 6 9 C6.99 9 7.98 9 9 9 C9 8.01 9 7.02 9 6 C7.02 6 5.04 6 3 6 C3 5.01 3 4.02 3 3 C2.01 3 1.02 3 0 3 C0 2.01 0 1.02 0 0 Z " fill="#878787" transform="translate(642,1098)"/>
<path d="M0 0 C0.99 0 1.98 0 3 0 C3 3.96 3 7.92 3 12 C2.01 12 1.02 12 0 12 C0 10.02 0 8.04 0 6 C-4.95 6 -9.9 6 -15 6 C-15 7.98 -15 9.96 -15 12 C-14.01 12 -13.02 12 -12 12 C-12 13.98 -12 15.96 -12 18 C-11.01 18 -10.02 18 -9 18 C-9 18.99 -9 19.98 -9 21 C-10.98 21 -12.96 21 -15 21 C-15 19.02 -15 17.04 -15 15 C-15.99 15 -16.98 15 -18 15 C-18 13.02 -18 11.04 -18 9 C-18.99 9 -19.98 9 -21 9 C-21 8.01 -21 7.02 -21 6 C-20.01 6 -19.02 6 -18 6 C-18 5.01 -18 4.02 -18 3 C-12.06 3 -6.12 3 0 3 C0 2.01 0 1.02 0 0 Z " fill="#000000" transform="translate(657,906)"/>
<path d="M0 0 C1.98 0 3.96 0 6 0 C6 2.97 6 5.94 6 9 C5.01 9 4.02 9 3 9 C3 9.99 3 10.98 3 12 C-0.96 12 -4.92 12 -9 12 C-9 11.01 -9 10.02 -9 9 C-9.99 9 -10.98 9 -12 9 C-12 8.01 -12 7.02 -12 6 C-11.01 6 -10.02 6 -9 6 C-9 5.01 -9 4.02 -9 3 C-6.03 3 -3.06 3 0 3 C0 2.01 0 1.02 0 0 Z " fill="#D3CA80" transform="translate(621,1272)"/>
<path d="M0 0 C0.99 0 1.98 0 3 0 C3 1.98 3 3.96 3 6 C3.99 6 4.98 6 6 6 C6 6.99 6 7.98 6 9 C6.99 9 7.98 9 9 9 C9 9.99 9 10.98 9 12 C9.99 12 10.98 12 12 12 C12 12.99 12 13.98 12 15 C12.99 15 13.98 15 15 15 C15 18.96 15 22.92 15 27 C14.01 27 13.02 27 12 27 C12 26.01 12 25.02 12 24 C11.01 24 10.02 24 9 24 C9 21.03 9 18.06 9 15 C8.01 15 7.02 15 6 15 C6 14.01 6 13.02 6 12 C4.02 12 2.04 12 0 12 C0 8.04 0 4.08 0 0 Z " fill="#CCEBF4" transform="translate(741,1326)"/>
<path d="M0 0 C0.99 0 1.98 0 3 0 C3 5.94 3 11.88 3 18 C2.01 18 1.02 18 0 18 C0 18.99 0 19.98 0 21 C-0.99 21 -1.98 21 -3 21 C-3 21.99 -3 22.98 -3 24 C-3.99 24 -4.98 24 -6 24 C-6 22.02 -6 20.04 -6 18 C-5.01 18 -4.02 18 -3 18 C-3 15.03 -3 12.06 -3 9 C-2.01 9 -1.02 9 0 9 C0 6.03 0 3.06 0 0 Z " fill="#90BAC6" transform="translate(702,1272)"/>
<path d="M0 0 C0.99 0 1.98 0 3 0 C3 4.95 3 9.9 3 15 C3.99 15 4.98 15 6 15 C6 20.94 6 26.88 6 33 C5.01 33 4.02 33 3 33 C3 28.05 3 23.1 3 18 C2.01 18 1.02 18 0 18 C0 12.06 0 6.12 0 0 Z " fill="#2E2E2E" transform="translate(678,969)"/>
<path d="M0 0 C1.98 0 3.96 0 6 0 C6 0.99 6 1.98 6 3 C5.01 3 4.02 3 3 3 C3 3.99 3 4.98 3 6 C1.02 6 -0.96 6 -3 6 C-3 6.99 -3 7.98 -3 9 C-7.95 9 -12.9 9 -18 9 C-18 8.01 -18 7.02 -18 6 C-16.02 6 -14.04 6 -12 6 C-12 5.01 -12 4.02 -12 3 C-8.04 3 -4.08 3 0 3 C0 2.01 0 1.02 0 0 Z " fill="#95BEC9" transform="translate(645,834)"/>
<path d="M0 0 C1.98 0 3.96 0 6 0 C6 0.99 6 1.98 6 3 C5.01 3 4.02 3 3 3 C3 3.99 3 4.98 3 6 C2.01 6 1.02 6 0 6 C0 6.99 0 7.98 0 9 C-0.99 9 -1.98 9 -3 9 C-3 9.99 -3 10.98 -3 12 C-3.99 12 -4.98 12 -6 12 C-6 12.99 -6 13.98 -6 15 C-6.99 15 -7.98 15 -9 15 C-9 15.99 -9 16.98 -9 18 C-9.99 18 -10.98 18 -12 18 C-12 16.02 -12 14.04 -12 12 C-11.01 12 -10.02 12 -9 12 C-9 11.01 -9 10.02 -9 9 C-8.01 9 -7.02 9 -6 9 C-6 7.02 -6 5.04 -6 3 C-4.02 3 -2.04 3 0 3 C0 2.01 0 1.02 0 0 Z " fill="#CCEBF4" transform="translate(678,732)"/>
<path d="M0 0 C1.98 0 3.96 0 6 0 C6 5.94 6 11.88 6 18 C5.01 18 4.02 18 3 18 C3 17.01 3 16.02 3 15 C2.01 15 1.02 15 0 15 C0 13.02 0 11.04 0 9 C0.99 9 1.98 9 3 9 C3 8.01 3 7.02 3 6 C2.01 6 1.02 6 0 6 C0 4.02 0 2.04 0 0 Z " fill="#000000" transform="translate(894,1215)"/>
<path d="M0 0 C0.99 0 1.98 0 3 0 C3 1.98 3 3.96 3 6 C2.01 6 1.02 6 0 6 C0 6.99 0 7.98 0 9 C-0.99 9 -1.98 9 -3 9 C-3 9.99 -3 10.98 -3 12 C-4.98 12 -6.96 12 -9 12 C-9 9.03 -9 6.06 -9 3 C-6.03 3 -3.06 3 0 3 C0 2.01 0 1.02 0 0 Z " fill="#CCEBF4" transform="translate(702,1197)"/>
<path d="M0 0 C0.99 0 1.98 0 3 0 C3 0.99 3 1.98 3 3 C5.97 3 8.94 3 12 3 C12 3.99 12 4.98 12 6 C11.01 6 10.02 6 9 6 C9 6.99 9 7.98 9 9 C8.01 9 7.02 9 6 9 C6 9.99 6 10.98 6 12 C5.01 12 4.02 12 3 12 C3 10.02 3 8.04 3 6 C2.01 6 1.02 6 0 6 C0 4.02 0 2.04 0 0 Z " fill="#CCEBF4" transform="translate(987,1077)"/>
<path d="M0 0 C0.99 0 1.98 0 3 0 C3 2.97 3 5.94 3 9 C-2.94 9 -8.88 9 -15 9 C-15 8.01 -15 7.02 -15 6 C-10.05 6 -5.1 6 0 6 C0 4.02 0 2.04 0 0 Z " fill="#000000" transform="translate(657,939)"/>
<path d="M0 0 C1.98 0 3.96 0 6 0 C6 0.99 6 1.98 6 3 C7.98 3 9.96 3 12 3 C12 3.99 12 4.98 12 6 C11.01 6 10.02 6 9 6 C9 6.99 9 7.98 9 9 C8.01 9 7.02 9 6 9 C6 8.01 6 7.02 6 6 C5.01 6 4.02 6 3 6 C3 5.01 3 4.02 3 3 C2.01 3 1.02 3 0 3 C0 2.01 0 1.02 0 0 Z " fill="#C2E2EC" transform="translate(660,1236)"/>
<path d="M0 0 C0.99 0 1.98 0 3 0 C3 1.98 3 3.96 3 6 C2.01 6 1.02 6 0 6 C0 6.99 0 7.98 0 9 C-0.99 9 -1.98 9 -3 9 C-3 9.99 -3 10.98 -3 12 C-3.99 12 -4.98 12 -6 12 C-6 10.02 -6 8.04 -6 6 C-5.01 6 -4.02 6 -3 6 C-3 5.01 -3 4.02 -3 3 C-2.01 3 -1.02 3 0 3 C0 2.01 0 1.02 0 0 Z " fill="#000000" transform="translate(645,930)"/>
<path d="M0 0 C0.99 0 1.98 0 3 0 C3 1.98 3 3.96 3 6 C2.01 6 1.02 6 0 6 C0 6.99 0 7.98 0 9 C-0.99 9 -1.98 9 -3 9 C-3 9.99 -3 10.98 -3 12 C-3.99 12 -4.98 12 -6 12 C-6 10.02 -6 8.04 -6 6 C-5.01 6 -4.02 6 -3 6 C-3 5.01 -3 4.02 -3 3 C-2.01 3 -1.02 3 0 3 C0 2.01 0 1.02 0 0 Z " fill="#CCEBF4" transform="translate(594,864)"/>
<path d="M0 0 C5.94 0 11.88 0 18 0 C18 0.99 18 1.98 18 3 C12.06 3 6.12 3 0 3 C0 2.01 0 1.02 0 0 Z " fill="#000000" transform="translate(621,852)"/>
<path d="M0 0 C3.96 0 7.92 0 12 0 C12 1.98 12 3.96 12 6 C10.02 6 8.04 6 6 6 C6 5.01 6 4.02 6 3 C4.02 3 2.04 3 0 3 C0 2.01 0 1.02 0 0 Z " fill="#90BAC6" transform="translate(633,846)"/>
<path d="M0 0 C0.99 0 1.98 0 3 0 C3 0.99 3 1.98 3 3 C3.99 3 4.98 3 6 3 C6 3.99 6 4.98 6 6 C5.01 6 4.02 6 3 6 C3 7.98 3 9.96 3 12 C2.01 12 1.02 12 0 12 C0 8.04 0 4.08 0 0 Z " fill="#2B2B2B" transform="translate(684,1206)"/>
<path d="M0 0 C0.99 0 1.98 0 3 0 C3 4.95 3 9.9 3 15 C2.01 15 1.02 15 0 15 C0 10.05 0 5.1 0 0 Z " fill="#2E2E2E" transform="translate(681,1140)"/>
<path d="M0 0 C4.95 0 9.9 0 15 0 C15 0.99 15 1.98 15 3 C10.05 3 5.1 3 0 3 C0 2.01 0 1.02 0 0 Z " fill="#000000" transform="translate(630,861)"/>
<path d="M0 0 C1.98 0 3.96 0 6 0 C6 0.99 6 1.98 6 3 C6.99 3 7.98 3 9 3 C9 3.99 9 4.98 9 6 C6.03 6 3.06 6 0 6 C0 4.02 0 2.04 0 0 Z " fill="#90BAC6" transform="translate(612,840)"/>
<path d="M0 0 C1.98 0 3.96 0 6 0 C6 1.98 6 3.96 6 6 C4.02 6 2.04 6 0 6 C0 4.02 0 2.04 0 0 Z " fill="#CCEBF4" transform="translate(744,1362)"/>
<path d="M0 0 C1.98 0 3.96 0 6 0 C6 1.98 6 3.96 6 6 C4.02 6 2.04 6 0 6 C0 4.02 0 2.04 0 0 Z " fill="#90BAC6" transform="translate(717,1299)"/>
<path d="M0 0 C0.99 0 1.98 0 3 0 C3 3.96 3 7.92 3 12 C2.01 12 1.02 12 0 12 C0 8.04 0 4.08 0 0 Z " fill="#2E2E2E" transform="translate(621,1026)"/>
<path d="M0 0 C1.98 0 3.96 0 6 0 C6 0.99 6 1.98 6 3 C6.99 3 7.98 3 9 3 C9 3.99 9 4.98 9 6 C7.02 6 5.04 6 3 6 C3 5.01 3 4.02 3 3 C2.01 3 1.02 3 0 3 C0 2.01 0 1.02 0 0 Z " fill="#000000" transform="translate(609,861)"/>
<path d="M0 0 C0.99 0 1.98 0 3 0 C3 1.98 3 3.96 3 6 C2.01 6 1.02 6 0 6 C0 6.99 0 7.98 0 9 C-0.99 9 -1.98 9 -3 9 C-3 7.02 -3 5.04 -3 3 C-2.01 3 -1.02 3 0 3 C0 2.01 0 1.02 0 0 Z " fill="#CCEBF4" transform="translate(600,855)"/>
<path d="M0 0 C3.96 0 7.92 0 12 0 C12 0.99 12 1.98 12 3 C8.04 3 4.08 3 0 3 C0 2.01 0 1.02 0 0 Z " fill="#CCEBF4" transform="translate(627,849)"/>
<path d="M0 0 C1.98 0 3.96 0 6 0 C6 0.99 6 1.98 6 3 C5.01 3 4.02 3 3 3 C3 3.99 3 4.98 3 6 C1.02 6 -0.96 6 -3 6 C-3 5.01 -3 4.02 -3 3 C-2.01 3 -1.02 3 0 3 C0 2.01 0 1.02 0 0 Z " fill="#CCEBF4" transform="translate(669,825)"/>
<path d="M0 0 C0.99 0 1.98 0 3 0 C3 1.98 3 3.96 3 6 C2.01 6 1.02 6 0 6 C0 6.99 0 7.98 0 9 C-0.99 9 -1.98 9 -3 9 C-3 7.02 -3 5.04 -3 3 C-2.01 3 -1.02 3 0 3 C0 2.01 0 1.02 0 0 Z " fill="#000000" transform="translate(669,735)"/>
<path d="M0 0 C0.99 0 1.98 0 3 0 C3 3.96 3 7.92 3 12 C2.01 12 1.02 12 0 12 C0 8.04 0 4.08 0 0 Z " fill="#2E2E2E" transform="translate(645,582)"/>
<path d="M0 0 C0.99 0 1.98 0 3 0 C3 2.97 3 5.94 3 9 C2.01 9 1.02 9 0 9 C0 6.03 0 3.06 0 0 Z " fill="#E4DFBD" transform="translate(627,1269)"/>
<path d="M0 0 C1.98 0 3.96 0 6 0 C6 1.98 6 3.96 6 6 C5.01 6 4.02 6 3 6 C3 5.01 3 4.02 3 3 C2.01 3 1.02 3 0 3 C0 2.01 0 1.02 0 0 Z " fill="#A4CAD5" transform="translate(669,1245)"/>
<path d="M0 0 C0.99 0 1.98 0 3 0 C3 0.99 3 1.98 3 3 C3.99 3 4.98 3 6 3 C6 3.99 6 4.98 6 6 C4.02 6 2.04 6 0 6 C0 4.02 0 2.04 0 0 Z " fill="#000000" transform="translate(663,1242)"/>
<path d="M0 0 C2.97 0 5.94 0 9 0 C9 0.99 9 1.98 9 3 C6.03 3 3.06 3 0 3 C0 2.01 0 1.02 0 0 Z " fill="#000000" transform="translate(642,1185)"/>
<path d="M0 0 C2.97 0 5.94 0 9 0 C9 0.99 9 1.98 9 3 C6.03 3 3.06 3 0 3 C0 2.01 0 1.02 0 0 Z " fill="#000000" transform="translate(612,849)"/>
<path d="M0 0 C0.99 0 1.98 0 3 0 C3 1.98 3 3.96 3 6 C1.02 6 -0.96 6 -3 6 C-3 5.01 -3 4.02 -3 3 C-2.01 3 -1.02 3 0 3 C0 2.01 0 1.02 0 0 Z " fill="#90BAC6" transform="translate(624,846)"/>
<path d="M0 0 C1.98 0 3.96 0 6 0 C6 1.98 6 3.96 6 6 C5.01 6 4.02 6 3 6 C3 5.01 3 4.02 3 3 C2.01 3 1.02 3 0 3 C0 2.01 0 1.02 0 0 Z " fill="#4B2E2E" transform="translate(612,78)"/>
<path d="M0 0 C0.99 0 1.98 0 3 0 C3 1.98 3 3.96 3 6 C2.01 6 1.02 6 0 6 C0 4.02 0 2.04 0 0 Z " fill="#CCEBF4" transform="translate(729,1350)"/>
<path d="M0 0 C0.99 0 1.98 0 3 0 C3 1.98 3 3.96 3 6 C2.01 6 1.02 6 0 6 C0 4.02 0 2.04 0 0 Z " fill="#CCEBF4" transform="translate(705,1314)"/>
<path d="M0 0 C0.99 0 1.98 0 3 0 C3 1.98 3 3.96 3 6 C2.01 6 1.02 6 0 6 C0 4.02 0 2.04 0 0 Z " fill="#CCEBF4" transform="translate(696,1290)"/>
<path d="M0 0 C1.98 0 3.96 0 6 0 C6 0.99 6 1.98 6 3 C4.02 3 2.04 3 0 3 C0 2.01 0 1.02 0 0 Z " fill="#CCEBF4" transform="translate(669,1257)"/>
<path d="M0 0 C1.98 0 3.96 0 6 0 C6 0.99 6 1.98 6 3 C4.02 3 2.04 3 0 3 C0 2.01 0 1.02 0 0 Z " fill="#CCEBF4" transform="translate(642,1224)"/>
<path d="M0 0 C1.98 0 3.96 0 6 0 C6 0.99 6 1.98 6 3 C4.02 3 2.04 3 0 3 C0 2.01 0 1.02 0 0 Z " fill="#000000" transform="translate(666,1206)"/>
<path d="M0 0 C0.99 0 1.98 0 3 0 C3 1.98 3 3.96 3 6 C2.01 6 1.02 6 0 6 C0 4.02 0 2.04 0 0 Z " fill="#000000" transform="translate(636,942)"/>
<path d="M0 0 C0.99 0 1.98 0 3 0 C3 1.98 3 3.96 3 6 C2.01 6 1.02 6 0 6 C0 4.02 0 2.04 0 0 Z " fill="#2E2E2E" transform="translate(621,888)"/>
<path d="M0 0 C0.99 0 1.98 0 3 0 C3 1.98 3 3.96 3 6 C2.01 6 1.02 6 0 6 C0 4.02 0 2.04 0 0 Z " fill="#CCEBF4" transform="translate(627,867)"/>
<path d="M0 0 C1.98 0 3.96 0 6 0 C6 0.99 6 1.98 6 3 C4.02 3 2.04 3 0 3 C0 2.01 0 1.02 0 0 Z " fill="#000000" transform="translate(624,858)"/>
<path d="M0 0 C0.99 0 1.98 0 3 0 C3 1.98 3 3.96 3 6 C2.01 6 1.02 6 0 6 C0 4.02 0 2.04 0 0 Z " fill="#AED2DD" transform="translate(678,813)"/>
<path d="M0 0 C0.99 0 1.98 0 3 0 C3 1.98 3 3.96 3 6 C2.01 6 1.02 6 0 6 C0 4.02 0 2.04 0 0 Z " fill="#000000" transform="translate(654,756)"/>
<path d="M0 0 C0.99 0 1.98 0 3 0 C3 1.98 3 3.96 3 6 C2.01 6 1.02 6 0 6 C0 4.02 0 2.04 0 0 Z " fill="#000000" transform="translate(663,744)"/>
<path d="M0 0 C1.98 0 3.96 0 6 0 C6 0.99 6 1.98 6 3 C4.02 3 2.04 3 0 3 C0 2.01 0 1.02 0 0 Z " fill="#2E2E2E" transform="translate(627,84)"/>
</svg>
